# Blender v2.78 (sub 0) OBJ File: 'Grass.blend'
# www.blender.org
mtllib 03.mtl
o Grass.022_Plane.004
v -0.337554 0.252620 -0.033798
v -0.273211 0.236700 0.007844
v -0.227487 0.205909 0.028668
v -0.145264 0.142649 0.030368
v -0.057185 0.079854 0.011983
v -0.075795 0.069342 0.030156
v -0.162561 0.132723 0.046549
v -0.244179 0.196360 0.041675
v -0.286944 0.228423 0.018805
v -0.347449 0.246882 -0.024902
v 0.002001 0.003270 -0.013342
v -0.391626 0.261261 -0.070429
v -0.017222 -0.007591 0.005431
v -0.397012 0.256697 -0.065373
v -0.428154 0.446702 -0.086629
v -0.013811 0.000446 0.021868
v -0.425998 0.446352 -0.097250
v -0.007932 -0.001119 -0.015297
v -0.357093 0.419025 -0.070586
v -0.266615 0.376179 -0.045193
v -0.182110 0.306393 0.002689
v -0.092510 0.218071 0.019972
v -0.036681 0.110898 0.015197
v -0.030265 0.109438 -0.020647
v -0.086511 0.216856 -0.012768
v -0.176148 0.305534 -0.026340
v -0.257045 0.377400 -0.068690
v -0.353024 0.418429 -0.088744
v -0.289841 0.309514 0.207556
v -0.227181 0.276881 0.155534
v -0.171082 0.225184 0.099963
v -0.125228 0.149930 0.057667
v -0.074379 0.069649 0.023329
v -0.051053 0.079071 0.036383
v -0.107300 0.155800 0.070476
v -0.152534 0.232402 0.110519
v -0.213036 0.281953 0.164687
v -0.278123 0.314310 0.214108
v -0.012049 -0.004482 -0.006742
v -0.335919 0.319104 0.258216
v 0.012049 0.005249 0.006742
v -0.329049 0.321866 0.262050
v -0.118958 0.522158 -0.151833
v -0.142413 0.447269 -0.067672
v -0.141012 0.343355 -0.047641
v -0.105449 0.231747 -0.013323
v -0.035164 0.119201 -0.001122
v -0.067520 0.112084 -0.021691
v -0.134878 0.225062 -0.032183
v -0.166844 0.337346 -0.064927
v -0.163674 0.442115 -0.083183
v -0.135515 0.518570 -0.162370
v 0.017891 0.004498 -0.001639
v -0.096681 0.571209 -0.228175
v -0.015531 -0.002857 -0.022886
v -0.106393 0.569073 -0.234192
v 0.225559 0.265073 -0.206970
v 0.007478 -0.005161 -0.015224
v 0.225110 0.268762 -0.200109
v 0.007270 0.003299 0.009264
v 0.172159 0.249961 -0.198091
v 0.111852 0.226112 -0.184459
v 0.077758 0.193016 -0.171653
v 0.038927 0.129429 -0.124997
v 0.011304 0.066509 -0.062606
v 0.011103 0.074696 -0.038899
v 0.038241 0.137142 -0.103362
v 0.075363 0.200319 -0.152283
v 0.109984 0.232499 -0.168341
v 0.171516 0.254410 -0.185918
v 0.291858 0.477195 0.048905
v 0.000912 0.001962 -0.017583
v 0.291344 0.476309 0.058919
v -0.000912 -0.001195 0.017583
v 0.223971 0.447838 0.023345
v 0.157843 0.387035 -0.003205
v 0.094428 0.309090 -0.014324
v 0.061404 0.208651 -0.002850
v 0.030594 0.104760 -0.005042
v 0.028827 0.101701 0.029002
v 0.056599 0.207545 0.023875
v 0.092739 0.306936 0.012686
v 0.155225 0.385766 0.017673
v 0.223112 0.446235 0.040476
v 0.015761 0.336434 0.421313
v 0.015607 -0.005498 0.016982
v 0.006662 0.340137 0.417251
v -0.015878 0.001457 0.003503
v 0.040737 0.324294 0.351340
v 0.067307 0.301307 0.269309
v 0.083776 0.262341 0.217364
v 0.075034 0.179610 0.136001
v 0.041564 0.093394 0.058681
v 0.011083 0.100124 0.045631
v 0.047405 0.186145 0.123532
v 0.059878 0.268988 0.204160
v 0.047235 0.307217 0.258510
v 0.025293 0.328151 0.344037
v 0.225520 0.434805 -0.200808
v -0.006751 0.000800 -0.021830
v 0.231432 0.434761 -0.193262
v 0.014937 0.000509 0.003439
v 0.179205 0.403119 -0.164870
v 0.118200 0.355918 -0.122567
v 0.050114 0.284790 -0.099310
v 0.002631 0.198348 -0.056408
v -0.007861 0.099674 -0.024708
v 0.012626 0.099365 0.000163
v 0.021246 0.198156 -0.033589
v 0.066217 0.284748 -0.078633
v 0.128225 0.357101 -0.102522
v 0.189095 0.403009 -0.151715
v -0.025835 0.288824 -0.289199
v -0.021218 0.256623 -0.219914
v -0.007323 0.208574 -0.154417
v 0.007482 0.140367 -0.105227
v 0.014998 0.066943 -0.057695
v -0.008496 0.072347 -0.048972
v -0.012193 0.143201 -0.100233
v -0.026075 0.212624 -0.147604
v -0.036180 0.259286 -0.215389
v -0.037643 0.291594 -0.284810
v 0.012134 -0.002407 -0.004506
v -0.035079 0.299383 -0.348425
v -0.012134 0.003174 0.004506
v -0.041989 0.300964 -0.345852
v 0.401956 0.322927 0.238587
v 0.312326 0.309164 0.166207
v 0.247258 0.246623 0.103203
v 0.156520 0.175846 0.059544
v 0.069793 0.087966 0.044141
v 0.092327 0.083573 0.018149
v 0.177026 0.171654 0.035797
v 0.265724 0.242584 0.082365
v 0.328363 0.305233 0.149091
v 0.413521 0.320712 0.225320
v -0.002859 -0.001803 0.016081
v 0.473845 0.322542 0.293804
v 0.020417 -0.006342 -0.010768
v 0.480494 0.321282 0.285984
v -0.277878 0.386263 0.202871
v 0.010932 0.002450 0.010888
v -0.284109 0.385097 0.196675
v -0.010932 -0.001682 -0.010888
v -0.217463 0.368294 0.170156
v -0.152113 0.322761 0.136764
v -0.095707 0.261327 0.094944
v -0.067803 0.176349 0.058584
v -0.031472 0.088748 0.031328
v -0.052636 0.084746 0.010247
v -0.082699 0.174666 0.039857
v -0.112383 0.258419 0.078047
v -0.164325 0.320984 0.122859
v -0.228119 0.366222 0.159563
v -0.345914 0.273523 -0.207050
v -0.019171 -0.006998 0.000133
v -0.338673 0.277809 -0.210479
v 0.006484 0.002691 -0.012519
v -0.311419 0.263618 -0.150919
v -0.267978 0.244627 -0.087595
v -0.236176 0.211333 -0.049612
v -0.163156 0.143571 -0.014795
v -0.078232 0.074964 0.000944
v -0.053395 0.084341 -0.011303
v -0.140288 0.152477 -0.025494
v -0.214952 0.220013 -0.057391
v -0.250400 0.252188 -0.094271
v -0.298449 0.268790 -0.156690
vt 0.2906 0.3332
vt 0.3087 0.1667
vt 0.5558 0.1667
vt 0.5612 0.3332
vt 0.3349 0.4985
vt 0.5740 0.4985
vt 0.3312 0.6624
vt 0.5409 0.6624
vt 0.3678 0.8322
vt 0.5048 0.8322
vt 0.3439 0.9846
vt 0.4344 0.9846
vt 0.2742 0.0000
vt 0.5095 0.0000
vt 0.3087 0.1667
vt 0.2742 0.0000
vt 0.5095 0.0000
vt 0.5558 0.1667
vt 0.3439 0.9846
vt 0.3678 0.8322
vt 0.5048 0.8322
vt 0.4344 0.9846
vt 0.3312 0.6624
vt 0.5409 0.6624
vt 0.3349 0.4985
vt 0.5740 0.4985
vt 0.2906 0.3332
vt 0.5612 0.3332
vt 0.2906 0.3332
vt 0.3087 0.1667
vt 0.5558 0.1667
vt 0.5612 0.3332
vt 0.3349 0.4985
vt 0.5740 0.4985
vt 0.3312 0.6624
vt 0.5409 0.6624
vt 0.3678 0.8322
vt 0.5048 0.8322
vt 0.3439 0.9846
vt 0.4344 0.9846
vt 0.2742 0.0000
vt 0.5095 0.0000
vt 0.2906 0.3332
vt 0.3087 0.1667
vt 0.5558 0.1667
vt 0.5612 0.3332
vt 0.3349 0.4985
vt 0.5740 0.4985
vt 0.3312 0.6624
vt 0.5409 0.6624
vt 0.3678 0.8322
vt 0.5048 0.8322
vt 0.3439 0.9846
vt 0.4344 0.9846
vt 0.2742 0.0000
vt 0.5095 0.0000
vt 0.3087 0.1667
vt 0.2742 0.0000
vt 0.5095 0.0000
vt 0.5558 0.1667
vt 0.3439 0.9846
vt 0.3678 0.8322
vt 0.5048 0.8322
vt 0.4344 0.9846
vt 0.3312 0.6624
vt 0.5409 0.6624
vt 0.3349 0.4985
vt 0.5740 0.4985
vt 0.2906 0.3332
vt 0.5612 0.3332
vt 0.3087 0.1667
vt 0.2742 0.0000
vt 0.5095 0.0000
vt 0.5558 0.1667
vt 0.3439 0.9846
vt 0.3678 0.8322
vt 0.5048 0.8322
vt 0.4344 0.9846
vt 0.3312 0.6624
vt 0.5409 0.6624
vt 0.3349 0.4985
vt 0.5740 0.4985
vt 0.2906 0.3332
vt 0.5612 0.3332
vt 0.3087 0.1667
vt 0.2742 0.0000
vt 0.5095 0.0000
vt 0.5558 0.1667
vt 0.3439 0.9846
vt 0.3678 0.8322
vt 0.5048 0.8322
vt 0.4344 0.9846
vt 0.3312 0.6624
vt 0.5409 0.6624
vt 0.3349 0.4985
vt 0.5740 0.4985
vt 0.2906 0.3332
vt 0.5612 0.3332
vt 0.3087 0.1667
vt 0.2742 0.0000
vt 0.5095 0.0000
vt 0.5558 0.1667
vt 0.3439 0.9846
vt 0.3678 0.8322
vt 0.5048 0.8322
vt 0.4344 0.9846
vt 0.3312 0.6624
vt 0.5409 0.6624
vt 0.3349 0.4985
vt 0.5740 0.4985
vt 0.2906 0.3332
vt 0.5612 0.3332
vt 0.2906 0.3332
vt 0.3087 0.1667
vt 0.5558 0.1667
vt 0.5612 0.3332
vt 0.3349 0.4985
vt 0.5740 0.4985
vt 0.3312 0.6624
vt 0.5409 0.6624
vt 0.3678 0.8322
vt 0.5048 0.8322
vt 0.3439 0.9846
vt 0.4344 0.9846
vt 0.2742 0.0000
vt 0.5095 0.0000
vt 0.2906 0.3332
vt 0.3087 0.1667
vt 0.5558 0.1667
vt 0.5612 0.3332
vt 0.3349 0.4985
vt 0.5740 0.4985
vt 0.3312 0.6624
vt 0.5409 0.6624
vt 0.3678 0.8322
vt 0.5048 0.8322
vt 0.3439 0.9846
vt 0.4344 0.9846
vt 0.2742 0.0000
vt 0.5095 0.0000
vt 0.3087 0.1667
vt 0.2742 0.0000
vt 0.5095 0.0000
vt 0.5558 0.1667
vt 0.3439 0.9846
vt 0.3678 0.8322
vt 0.5048 0.8322
vt 0.4344 0.9846
vt 0.3312 0.6624
vt 0.5409 0.6624
vt 0.3349 0.4985
vt 0.5740 0.4985
vt 0.2906 0.3332
vt 0.5612 0.3332
vt 0.3087 0.1667
vt 0.2742 0.0000
vt 0.5095 0.0000
vt 0.5558 0.1667
vt 0.3439 0.9846
vt 0.3678 0.8322
vt 0.5048 0.8322
vt 0.4344 0.9846
vt 0.3312 0.6624
vt 0.5409 0.6624
vt 0.3349 0.4985
vt 0.5740 0.4985
vt 0.2906 0.3332
vt 0.5612 0.3332
vn 0.4095 0.4899 0.7696
vn 0.5331 0.3609 0.7652
vn 0.5647 0.3106 0.7646
vn 0.4332 0.4741 0.7665
vn 0.2461 0.6237 0.7418
vn 0.2759 0.5995 0.7512
vn 0.0167 0.7985 0.6017
vn 0.0374 0.7841 0.6194
vn -0.1412 0.8709 0.4707
vn -0.1349 0.8701 0.4740
vn -0.1790 0.8749 0.4500
vn 0.6134 0.2236 0.7574
vn 0.9292 0.3382 0.1489
vn 0.9663 0.2060 0.1542
vn 0.9345 0.3230 0.1497
vn 0.3529 0.9345 0.0456
vn 0.3661 0.9260 0.0921
vn 0.3666 0.9256 0.0937
vn 0.4854 0.8597 0.1591
vn 0.6412 0.7542 0.1414
vn 0.6351 0.7586 0.1453
vn 0.7900 0.5999 0.1263
vn 0.8024 0.5828 0.1284
vn 0.2864 0.5626 -0.7755
vn 0.2648 0.5369 -0.8010
vn 0.2674 0.5375 -0.7997
vn 0.2865 0.5620 -0.7759
vn 0.1858 0.6861 -0.7033
vn 0.1857 0.6863 -0.7032
vn 0.0481 0.8089 -0.5860
vn 0.0424 0.8137 -0.5798
vn -0.0766 0.8856 -0.4581
vn -0.1019 0.8961 -0.4319
vn -0.1840 0.9217 -0.3413
vn 0.2400 0.5314 -0.8124
vn -0.5361 -0.0442 0.8430
vn -0.4888 -0.2206 0.8440
vn -0.4880 -0.2228 0.8439
vn -0.5247 -0.0938 0.8461
vn -0.5744 0.1158 0.8103
vn -0.5734 0.1134 0.8114
vn -0.5772 0.4491 0.6819
vn -0.5777 0.4455 0.6838
vn -0.4664 0.7636 0.4465
vn -0.4706 0.7579 0.4517
vn -0.4273 0.8121 0.3974
vn -0.4859 -0.2286 0.8435
vn -0.9777 0.1932 -0.0823
vn -0.9990 0.0389 -0.0219
vn -0.9888 0.1362 -0.0600
vn -0.3215 0.8639 -0.3878
vn -0.3618 0.8538 -0.3743
vn -0.3699 0.8516 -0.3715
vn -0.5631 0.7493 -0.3485
vn -0.5927 0.7277 -0.3451
vn -0.8081 0.5200 -0.2765
vn -0.8330 0.4880 -0.2606
vn -0.9207 0.3487 -0.1749
vn -0.9320 0.3278 -0.1549
vn -0.9602 0.2735 -0.0557
vn -0.9597 0.2801 -0.0246
vn -0.9602 0.2739 -0.0537
vn -0.4162 0.9071 0.0621
vn -0.5677 0.8228 0.0240
vn -0.5372 0.8428 0.0321
vn -0.7289 0.6844 -0.0157
vn -0.7257 0.6878 -0.0151
vn -0.8697 0.4900 -0.0587
vn -0.8817 0.4674 -0.0637
vn -0.9516 0.2936 -0.0906
vn -0.9531 0.2889 -0.0897
vn 0.4396 0.3977 -0.8053
vn 0.4275 0.2536 -0.8677
vn 0.4370 0.3540 -0.8268
vn 0.3199 0.9454 -0.0619
vn 0.3259 0.9397 -0.1034
vn 0.3266 0.9388 -0.1090
vn 0.3996 0.8688 -0.2922
vn 0.4067 0.8600 -0.3082
vn 0.4724 0.6937 -0.5437
vn 0.4740 0.6758 -0.5644
vn 0.4635 0.5484 -0.6960
vn 0.4569 0.5320 -0.7129
vn -0.7599 0.1510 0.6323
vn -0.7652 0.0068 0.6437
vn -0.7616 0.1303 0.6348
vn -0.3743 0.8800 0.2922
vn -0.4190 0.8665 0.2713
vn -0.4211 0.8658 0.2703
vn -0.5470 0.7744 0.3178
vn -0.5475 0.7739 0.3182
vn -0.6265 0.6384 0.4472
vn -0.6261 0.6432 0.4408
vn -0.6920 0.4518 0.5630
vn -0.7009 0.4269 0.5714
vn 0.3390 0.5687 0.7494
vn 0.3735 0.5481 0.7484
vn 0.3729 0.5481 0.7486
vn 0.3398 0.5665 0.7507
vn 0.3346 0.7033 0.6272
vn 0.3347 0.6962 0.6350
vn 0.3192 0.8321 0.4535
vn 0.3181 0.8356 0.4479
vn 0.2932 0.9139 0.2805
vn 0.2887 0.9247 0.2481
vn 0.2694 0.9545 0.1277
vn 0.3990 0.5476 0.7354
vn -0.4519 0.7226 -0.5230
vn -0.5362 0.6218 -0.5708
vn -0.5372 0.6206 -0.5712
vn -0.4702 0.7027 -0.5338
vn -0.3553 0.8050 -0.4751
vn -0.3550 0.8052 -0.4750
vn -0.1741 0.9211 -0.3480
vn -0.1635 0.9264 -0.3392
vn 0.0400 0.9883 -0.1469
vn 0.0396 0.9883 -0.1475
vn 0.0785 0.9923 -0.0957
vn -0.5404 0.6164 -0.5727
vn 0.6104 0.4446 -0.6556
vn 0.5869 0.4481 -0.6743
vn 0.6096 0.4447 -0.6562
vn 0.1185 0.9460 -0.3016
vn 0.2470 0.8878 -0.3884
vn 0.2204 0.9021 -0.3710
vn 0.3890 0.7830 -0.4852
vn 0.3858 0.7862 -0.4827
vn 0.5300 0.6265 -0.5714
vn 0.5408 0.6120 -0.5770
vn 0.6279 0.4640 -0.6249
vn 0.6287 0.4605 -0.6266
vn 0.2806 0.3846 0.8794
vn 0.3527 0.2452 0.9030
vn 0.3072 0.3359 0.8904
vn -0.2683 0.9022 0.3377
vn -0.2396 0.8979 0.3692
vn -0.2350 0.8971 0.3740
vn -0.1352 0.8278 0.5445
vn -0.1234 0.8154 0.5656
vn 0.0288 0.6555 0.7546
vn 0.0508 0.6332 0.7723
vn 0.1675 0.5194 0.8379
vn 0.1891 0.5033 0.8432
usemtl Grass.001
s 1
f 7/1/1 6/2/2 5/3/3 4/4/4
f 8/5/5 7/1/1 4/4/4 3/6/6
f 9/7/7 8/5/5 3/6/6 2/8/8
f 10/9/9 9/7/7 2/8/8 1/10/10
f 14/11/11 10/9/9 1/10/10 12/12/11
f 6/2/2 13/13/12 11/14/12 5/3/3
f 23/15/13 16/16/14 18/17/14 24/18/15
f 15/19/16 19/20/17 28/21/18 17/22/16
f 19/20/17 20/23/19 27/24/19 28/21/18
f 20/23/19 21/25/20 26/26/21 27/24/19
f 21/25/20 22/27/22 25/28/23 26/26/21
f 22/27/22 23/15/13 24/18/15 25/28/23
f 35/29/24 34/30/25 33/31/26 32/32/27
f 36/33/28 35/29/24 32/32/27 31/34/29
f 37/35/30 36/33/28 31/34/29 30/36/31
f 38/37/32 37/35/30 30/36/31 29/38/33
f 42/39/34 38/37/32 29/38/33 40/40/34
f 34/30/25 41/41/35 39/42/35 33/31/26
f 49/43/36 48/44/37 47/45/38 46/46/39
f 50/47/40 49/43/36 46/46/39 45/48/41
f 51/49/42 50/47/40 45/48/41 44/50/43
f 52/51/44 51/49/42 44/50/43 43/52/45
f 56/53/46 52/51/44 43/52/45 54/54/46
f 48/44/37 55/55/47 53/56/47 47/45/38
f 65/57/48 58/58/49 60/59/49 66/60/50
f 57/61/51 61/62/52 70/63/53 59/64/51
f 61/62/52 62/65/54 69/66/55 70/63/53
f 62/65/54 63/67/56 68/68/57 69/66/55
f 63/67/56 64/69/58 67/70/59 68/68/57
f 64/69/58 65/57/48 66/60/50 67/70/59
f 79/71/60 72/72/61 74/73/61 80/74/62
f 71/75/63 75/76/64 84/77/65 73/78/63
f 75/76/64 76/79/66 83/80/67 84/77/65
f 76/79/66 77/81/68 82/82/69 83/80/67
f 77/81/68 78/83/70 81/84/71 82/82/69
f 78/83/70 79/71/60 80/74/62 81/84/71
f 93/85/72 86/86/73 88/87/73 94/88/74
f 85/89/75 89/90/76 98/91/77 87/92/75
f 89/90/76 90/93/78 97/94/79 98/91/77
f 90/93/78 91/95/80 96/96/81 97/94/79
f 91/95/80 92/97/82 95/98/83 96/96/81
f 92/97/82 93/85/72 94/88/74 95/98/83
f 107/99/84 100/100/85 102/101/85 108/102/86
f 99/103/87 103/104/88 112/105/89 101/106/87
f 103/104/88 104/107/90 111/108/91 112/105/89
f 104/107/90 105/109/92 110/110/93 111/108/91
f 105/109/92 106/111/94 109/112/95 110/110/93
f 106/111/94 107/99/84 108/102/86 109/112/95
f 119/113/96 118/114/97 117/115/98 116/116/99
f 120/117/100 119/113/96 116/116/99 115/118/101
f 121/119/102 120/117/100 115/118/101 114/120/103
f 122/121/104 121/119/102 114/120/103 113/122/105
f 126/123/106 122/121/104 113/122/105 124/124/106
f 118/114/97 125/125/107 123/126/107 117/115/98
f 133/127/108 132/128/109 131/129/110 130/130/111
f 134/131/112 133/127/108 130/130/111 129/132/113
f 135/133/114 134/131/112 129/132/113 128/134/115
f 136/135/116 135/133/114 128/134/115 127/136/117
f 140/137/118 136/135/116 127/136/117 138/138/118
f 132/128/109 139/139/119 137/140/119 131/129/110
f 149/141/120 142/142/121 144/143/121 150/144/122
f 141/145/123 145/146/124 154/147/125 143/148/123
f 145/146/124 146/149/126 153/150/127 154/147/125
f 146/149/126 147/151/128 152/152/129 153/150/127
f 147/151/128 148/153/130 151/154/131 152/152/129
f 148/153/130 149/141/120 150/144/122 151/154/131
f 163/155/132 156/156/133 158/157/133 164/158/134
f 155/159/135 159/160/136 168/161/137 157/162/135
f 159/160/136 160/163/138 167/164/139 168/161/137
f 160/163/138 161/165/140 166/166/141 167/164/139
f 161/165/140 162/167/142 165/168/143 166/166/141
f 162/167/142 163/155/132 164/158/134 165/168/143
