# Blender v2.78 (sub 0) OBJ File: 'Grass.blend'
# www.blender.org
mtllib 06.mtl
o Grass.025_Plane.007
v -0.429711 0.618045 -0.000696
v -0.342658 0.532512 0.090710
v -0.252904 0.409759 0.145299
v -0.107262 0.299534 0.078419
v -0.026534 0.155853 -0.008310
v -0.028751 0.155270 0.042477
v -0.113677 0.293054 0.125529
v -0.265677 0.397356 0.191142
v -0.355884 0.524177 0.125570
v -0.431986 0.617623 0.025165
v -0.013895 0.000353 -0.019793
v -0.526870 0.663874 0.004953
v -0.015120 -0.000248 0.032727
v -0.527893 0.663610 0.020039
v -0.335207 0.518428 -0.212180
v -0.243414 0.454657 -0.161607
v -0.155292 0.364448 -0.126375
v -0.096774 0.243788 -0.104031
v -0.048098 0.115823 -0.072100
v -0.052005 0.126318 -0.031556
v -0.103941 0.250177 -0.071796
v -0.158715 0.372419 -0.094114
v -0.247647 0.460232 -0.136550
v -0.337145 0.523789 -0.191801
v 0.002018 -0.005036 -0.020941
v -0.423636 0.545974 -0.246581
v -0.002018 0.005803 0.020941
v -0.424776 0.549045 -0.234651
v 0.305453 0.417613 -0.374815
v 0.009044 -0.008537 -0.025077
v 0.305910 0.423561 -0.364100
v 0.013026 0.005293 0.013052
v 0.223994 0.393036 -0.350398
v 0.132905 0.354653 -0.316967
v 0.083033 0.302120 -0.289468
v 0.033130 0.202091 -0.207114
v 0.003710 0.103623 -0.102241
v 0.007564 0.117008 -0.065328
v 0.035852 0.214679 -0.173339
v 0.082668 0.313985 -0.258908
v 0.132787 0.365018 -0.291570
v 0.225119 0.400285 -0.331350
v -0.427235 0.382272 0.050113
v -0.334004 0.350892 0.093332
v -0.272666 0.302400 0.109378
v -0.170072 0.207437 0.087928
v -0.062901 0.114379 0.037766
v -0.087107 0.099855 0.064898
v -0.192722 0.193786 0.112145
v -0.294982 0.289499 0.129158
v -0.352391 0.339671 0.109908
v -0.440267 0.374412 0.063462
v 0.000884 0.005383 -0.018376
v -0.506691 0.402229 0.010911
v -0.024119 -0.009622 0.009650
v -0.513995 0.395936 0.018279
v 0.300774 0.685453 -0.370441
v -0.014684 0.000487 -0.032935
v 0.311451 0.685636 -0.359732
v 0.024036 0.000909 0.002574
v 0.236053 0.635396 -0.304459
v 0.150045 0.560744 -0.225262
v 0.050187 0.447848 -0.173822
v -0.013195 0.311545 -0.095007
v -0.020325 0.156363 -0.040313
v 0.016439 0.156727 -0.005200
v 0.020249 0.312020 -0.062761
v 0.079289 0.448474 -0.144462
v 0.169467 0.563183 -0.195790
v 0.254015 0.635657 -0.285710
v 0.061154 0.551468 0.476558
v 0.016658 0.006565 -0.012235
v 0.051668 0.547963 0.483535
v -0.016658 -0.005797 0.012235
v 0.037708 0.525377 0.382266
v 0.025255 0.461422 0.278252
v 0.075522 0.387360 0.092513
v 0.067774 0.261283 0.038332
v 0.025159 0.131239 0.029374
v -0.009437 0.126393 0.054499
v 0.042702 0.261872 0.049349
v 0.051086 0.384107 0.108763
v 0.004059 0.454887 0.291525
v 0.021520 0.519275 0.394192
v 0.055379 0.329821 0.325253
v 0.010454 0.004393 -0.007501
v 0.049427 0.327548 0.329532
v -0.010454 -0.003625 0.007501
v 0.039233 0.316598 0.265247
v 0.029004 0.279869 0.197121
v 0.057036 0.238432 0.076768
v 0.048780 0.161369 0.036562
v 0.019032 0.080940 0.024770
v -0.002497 0.077614 0.040579
v 0.033205 0.161732 0.043735
v 0.041819 0.236233 0.087008
v 0.015712 0.275666 0.205300
v 0.029072 0.312642 0.272555
v 0.064118 0.759990 -0.302281
v 0.060054 0.758294 -0.316677
v 0.115560 0.638495 -0.256067
v 0.132362 0.574610 -0.216720
v 0.078410 0.450517 -0.138888
v 0.050813 0.449697 -0.172284
v 0.128676 0.566967 -0.250495
v 0.108775 0.635217 -0.280755
vt 0.2906 0.3332
vt 0.3087 0.1667
vt 0.5558 0.1667
vt 0.5612 0.3332
vt 0.3349 0.4985
vt 0.5740 0.4985
vt 0.3312 0.6624
vt 0.5409 0.6624
vt 0.3678 0.8322
vt 0.5048 0.8322
vt 0.3439 0.9846
vt 0.4344 0.9846
vt 0.2742 0.0000
vt 0.5095 0.0000
vt 0.2906 0.3332
vt 0.3087 0.1667
vt 0.5558 0.1667
vt 0.5612 0.3332
vt 0.3349 0.4985
vt 0.5740 0.4985
vt 0.3312 0.6624
vt 0.5409 0.6624
vt 0.3678 0.8322
vt 0.5048 0.8322
vt 0.3439 0.9846
vt 0.4344 0.9846
vt 0.2742 0.0000
vt 0.5095 0.0000
vt 0.3087 0.1667
vt 0.2742 0.0000
vt 0.5095 0.0000
vt 0.5558 0.1667
vt 0.3439 0.9846
vt 0.3678 0.8322
vt 0.5048 0.8322
vt 0.4344 0.9846
vt 0.3312 0.6624
vt 0.5409 0.6624
vt 0.3349 0.4985
vt 0.5740 0.4985
vt 0.2906 0.3332
vt 0.5612 0.3332
vt 0.2906 0.3332
vt 0.3087 0.1667
vt 0.5558 0.1667
vt 0.5612 0.3332
vt 0.3349 0.4985
vt 0.5740 0.4985
vt 0.3312 0.6624
vt 0.5409 0.6624
vt 0.3678 0.8322
vt 0.5048 0.8322
vt 0.3439 0.9846
vt 0.4344 0.9846
vt 0.2742 0.0000
vt 0.5095 0.0000
vt 0.3087 0.1667
vt 0.2742 0.0000
vt 0.5095 0.0000
vt 0.5558 0.1667
vt 0.3439 0.9846
vt 0.3678 0.8322
vt 0.5048 0.8322
vt 0.4344 0.9846
vt 0.3312 0.6624
vt 0.5409 0.6624
vt 0.3349 0.4985
vt 0.5740 0.4985
vt 0.2906 0.3332
vt 0.5612 0.3332
vt 0.3087 0.1667
vt 0.2742 0.0000
vt 0.5095 0.0000
vt 0.5558 0.1667
vt 0.3439 0.9846
vt 0.3678 0.8322
vt 0.5048 0.8322
vt 0.4344 0.9846
vt 0.3312 0.6624
vt 0.5409 0.6624
vt 0.3349 0.4985
vt 0.5740 0.4985
vt 0.2906 0.3332
vt 0.5612 0.3332
vt 0.3087 0.1667
vt 0.2742 0.0000
vt 0.5095 0.0000
vt 0.5558 0.1667
vt 0.3439 0.9846
vt 0.3678 0.8322
vt 0.5048 0.8322
vt 0.4344 0.9846
vt 0.3312 0.6624
vt 0.5409 0.6624
vt 0.3349 0.4985
vt 0.5740 0.4985
vt 0.2906 0.3332
vt 0.5612 0.3332
vt 0.3439 0.9846
vt 0.3678 0.8322
vt 0.5048 0.8322
vt 0.4344 0.9846
vt 0.3312 0.6624
vt 0.5409 0.6624
vt 0.3349 0.4985
vt 0.5740 0.4985
vn 0.7447 0.6303 0.2196
vn 0.9500 0.3017 0.0797
vn 0.9701 0.2337 0.0657
vn 0.8074 0.5629 0.1767
vn 0.6482 0.6871 0.3281
vn 0.6483 0.6867 0.3287
vn 0.6254 0.7029 0.3387
vn 0.5999 0.7395 0.3052
vn 0.5106 0.8425 0.1717
vn 0.4868 0.8631 0.1346
vn 0.4290 0.9019 0.0497
vn 0.9961 0.0818 0.0341
vn 0.9118 0.4072 0.0519
vn 0.9241 0.3815 0.0199
vn 0.9240 0.3817 0.0218
vn 0.9125 0.4057 0.0518
vn 0.8228 0.5682 -0.0074
vn 0.8253 0.5647 -0.0058
vn 0.6736 0.7342 -0.0844
vn 0.6660 0.7408 -0.0872
vn 0.5129 0.8456 -0.1479
vn 0.4769 0.8639 -0.1619
vn 0.3619 0.9098 -0.2029
vn 0.9250 0.3797 -0.0091
vn -0.9843 0.1735 0.0323
vn -0.9951 0.0193 0.0969
vn -0.9916 0.1158 0.0569
vn -0.3780 0.8536 -0.3584
vn -0.4164 0.8431 -0.3401
vn -0.4244 0.8407 -0.3362
vn -0.6128 0.7354 -0.2892
vn -0.6428 0.7123 -0.2817
vn -0.8451 0.5013 -0.1854
vn -0.8681 0.4680 -0.1655
vn -0.9420 0.3284 -0.0683
vn -0.9505 0.3072 -0.0464
vn 0.5499 0.3657 0.7508
vn 0.6606 0.2205 0.7176
vn 0.6875 0.1640 0.7074
vn 0.5730 0.3462 0.7428
vn 0.3912 0.5262 0.7550
vn 0.4233 0.4945 0.7591
vn 0.1523 0.7436 0.6510
vn 0.1786 0.7219 0.6685
vn -0.0186 0.8415 0.5398
vn -0.0105 0.8396 0.5431
vn -0.0582 0.8500 0.5235
vn 0.7250 0.0714 0.6850
vn -0.6810 0.1515 0.7164
vn -0.6832 0.0065 0.7302
vn -0.6823 0.1288 0.7196
vn -0.3478 0.8795 0.3249
vn -0.3946 0.8650 0.3098
vn -0.3971 0.8642 0.3089
vn -0.5151 0.7722 0.3720
vn -0.5163 0.7708 0.3733
vn -0.5770 0.6369 0.5113
vn -0.5774 0.6410 0.5056
vn -0.6253 0.4522 0.6359
vn -0.6335 0.4251 0.6464
vn -0.5625 0.2352 -0.7926
vn -0.6114 0.2792 -0.7404
vn -0.5734 0.2448 -0.7818
vn -0.4349 0.8897 -0.1385
vn -0.4911 0.8208 -0.2916
vn -0.4779 0.8414 -0.2524
vn -0.4747 0.7762 -0.4148
vn -0.4948 0.7682 -0.4063
vn -0.4703 0.5467 -0.6928
vn -0.4673 0.6557 -0.5930
vn -0.4903 0.3011 -0.8178
vn -0.4931 0.2918 -0.8195
vn -0.5635 0.3166 -0.7630
vn -0.6094 0.3570 -0.7079
vn -0.5733 0.3252 -0.7520
vn -0.4140 0.9059 -0.0886
vn -0.4708 0.8490 -0.2399
vn -0.4578 0.8657 -0.2025
vn -0.4569 0.8117 -0.3638
vn -0.4762 0.8042 -0.3557
vn -0.4605 0.6087 -0.6460
vn -0.4536 0.7060 -0.5438
vn -0.4900 0.3799 -0.7845
vn -0.4930 0.3712 -0.7868
vn 0.9159 0.2778 -0.2896
vn 0.9493 0.2066 -0.2369
vn 0.9388 0.2311 -0.2552
vn 0.9100 -0.3159 -0.2685
vn 0.9518 -0.1708 -0.2545
vn 0.7562 -0.5925 -0.2776
usemtl Grass.001
s 1
f 7/1/1 6/2/2 5/3/3 4/4/4
f 8/5/5 7/1/1 4/4/4 3/6/6
f 9/7/7 8/5/5 3/6/6 2/8/8
f 10/9/9 9/7/7 2/8/8 1/10/10
f 14/11/11 10/9/9 1/10/10 12/12/11
f 6/2/2 13/13/12 11/14/12 5/3/3
f 21/15/13 20/16/14 19/17/15 18/18/16
f 22/19/17 21/15/13 18/18/16 17/20/18
f 23/21/19 22/19/17 17/20/18 16/22/20
f 24/23/21 23/21/19 16/22/20 15/24/22
f 28/25/23 24/23/21 15/24/22 26/26/23
f 20/16/14 27/27/24 25/28/24 19/17/15
f 37/29/25 30/30/26 32/31/26 38/32/27
f 29/33/28 33/34/29 42/35/30 31/36/28
f 33/34/29 34/37/31 41/38/32 42/35/30
f 34/37/31 35/39/33 40/40/34 41/38/32
f 35/39/33 36/41/35 39/42/36 40/40/34
f 36/41/35 37/29/25 38/32/27 39/42/36
f 49/43/37 48/44/38 47/45/39 46/46/40
f 50/47/41 49/43/37 46/46/40 45/48/42
f 51/49/43 50/47/41 45/48/42 44/50/44
f 52/51/45 51/49/43 44/50/44 43/52/46
f 56/53/47 52/51/45 43/52/46 54/54/47
f 48/44/38 55/55/48 53/56/48 47/45/39
f 65/57/49 58/58/50 60/59/50 66/60/51
f 57/61/52 61/62/53 70/63/54 59/64/52
f 61/62/53 62/65/55 69/66/56 70/63/54
f 62/65/55 63/67/57 68/68/58 69/66/56
f 63/67/57 64/69/59 67/70/60 68/68/58
f 64/69/59 65/57/49 66/60/51 67/70/60
f 79/71/61 72/72/62 74/73/62 80/74/63
f 71/75/64 75/76/65 84/77/66 73/78/64
f 75/76/65 76/79/67 83/80/68 84/77/66
f 76/79/67 77/81/69 82/82/70 83/80/68
f 77/81/69 78/83/71 81/84/72 82/82/70
f 78/83/71 79/71/61 80/74/63 81/84/72
f 93/85/73 86/86/74 88/87/74 94/88/75
f 85/89/76 89/90/77 98/91/78 87/92/76
f 89/90/77 90/93/79 97/94/80 98/91/78
f 90/93/79 91/95/81 96/96/82 97/94/80
f 91/95/81 92/97/83 95/98/84 96/96/82
f 92/97/83 93/85/73 94/88/75 95/98/84
f 99/99/85 101/100/86 106/101/87 100/102/85
f 101/100/86 102/103/88 105/104/89 106/101/87
f 102/103/88 103/105/90 104/106/90 105/104/89
