# Blender v2.78 (sub 0) OBJ File: 'Grass.blend'
# www.blender.org
mtllib 07.mtl
o Grass.026_Plane.008
v -0.567789 0.507907 0.066599
v -0.443887 0.466204 0.124037
v -0.362368 0.401760 0.145361
v -0.226023 0.275555 0.116855
v -0.083595 0.151881 0.050191
v -0.115763 0.132580 0.086249
v -0.256124 0.257413 0.149039
v -0.392027 0.384614 0.171649
v -0.468322 0.451292 0.146066
v -0.585109 0.497462 0.084340
v 0.001174 0.007028 -0.024422
v -0.673385 0.534431 0.014500
v -0.032054 -0.012914 0.012824
v -0.683092 0.526068 0.024293
v 0.240221 0.547532 -0.295863
v -0.011728 0.000466 -0.026304
v 0.248749 0.547678 -0.287309
v 0.019197 0.000803 0.002056
v 0.188530 0.507553 -0.243164
v 0.119837 0.447930 -0.179912
v 0.040083 0.357763 -0.138827
v -0.010538 0.248901 -0.075880
v -0.016297 0.093289 -0.025026
v 0.013066 0.093580 0.003018
v 0.016172 0.249281 -0.050125
v 0.063327 0.358262 -0.115379
v 0.135349 0.449878 -0.156373
v 0.202876 0.507762 -0.228190
v 0.134487 0.422953 -0.077871
v 0.088082 0.363264 -0.098046
v 0.005042 0.246847 -0.049034
v 0.008369 0.189360 -0.020313
v 0.008893 0.094624 0.003647
v -0.014057 0.094346 -0.016427
v -0.012515 0.189021 -0.038756
v -0.013166 0.246422 -0.065861
v 0.074311 0.373532 -0.106895
v 0.122439 0.429639 -0.082275
v 0.014469 0.000702 0.000911
v 0.131783 0.467259 -0.033490
v -0.009662 0.000389 -0.019349
v 0.124652 0.471053 -0.036004
v 0.049014 0.458605 0.354112
v 0.051550 0.424005 0.245904
v 0.059445 0.370877 0.181519
v 0.042026 0.255045 0.101960
v -0.001951 0.132159 0.035258
v 0.041242 0.130062 0.040443
v 0.081541 0.252695 0.107499
v 0.094794 0.367941 0.189382
v 0.081239 0.421094 0.252208
v 0.071284 0.457083 0.357643
v -0.018087 -0.000122 0.010098
v 0.048891 0.480878 0.447610
v 0.026530 -0.002291 0.015453
v 0.062377 0.478171 0.449624
v -0.242222 0.326825 -0.195879
v -0.201991 0.302704 -0.123895
v -0.167569 0.264229 -0.086094
v -0.094359 0.185472 -0.051982
v -0.017834 0.101719 -0.027628
v -0.046996 0.093895 -0.019256
v -0.120768 0.176544 -0.044940
v -0.191391 0.254806 -0.081989
v -0.222304 0.294181 -0.119873
v -0.256907 0.321171 -0.192279
v 0.009441 0.001529 -0.012300
v -0.273472 0.341968 -0.259930
v -0.022145 -0.004415 -0.003012
v -0.281850 0.337453 -0.257870
v 0.179704 0.372038 0.254503
v 0.171786 0.338576 0.168317
v 0.161909 0.291829 0.119968
v 0.112413 0.199304 0.063696
v 0.039549 0.106636 0.017865
v 0.073059 0.097524 0.023538
v 0.142927 0.190669 0.069577
v 0.188919 0.283600 0.127696
v 0.194335 0.331297 0.174599
v 0.196837 0.367037 0.258171
v -0.014575 0.003752 0.007854
v 0.185789 0.394560 0.329675
v 0.020040 -0.005663 0.013713
v 0.195604 0.390116 0.331944
v -0.312185 0.330287 -0.058150
v -0.010224 0.000273 0.016022
v -0.310565 0.330118 -0.065952
v -0.005783 -0.000562 -0.011290
v -0.260154 0.309609 -0.046554
v -0.193959 0.277649 -0.028258
v -0.132361 0.225711 0.006123
v -0.067003 0.160411 0.017750
v -0.018803 0.061162 0.012183
v -0.013972 0.060390 -0.014155
v -0.062488 0.159793 -0.006305
v -0.127885 0.225321 -0.015200
v -0.186841 0.278728 -0.045471
v -0.257105 0.309322 -0.059891
v -0.140378 0.264075 -0.071958
v -0.127827 0.227544 -0.035401
v -0.057627 0.158996 -0.000455
v -0.036330 0.122324 -0.009126
v -0.012259 0.061375 -0.012165
v -0.015019 0.062012 0.007750
v -0.038927 0.122840 0.009067
v -0.060286 0.159335 0.015687
v -0.128959 0.234847 -0.025279
v -0.139270 0.269087 -0.064175
v -0.004709 -0.000351 -0.008277
v -0.120315 0.294761 -0.089486
v -0.007144 0.000336 0.012356
v -0.119590 0.297624 -0.084903
v 0.122541 0.308754 -0.185136
v 0.066444 0.282093 -0.144826
v 0.034609 0.244579 -0.122278
v 0.010882 0.167327 -0.076360
v 0.004515 0.087731 -0.020145
v -0.007834 0.083641 -0.045559
v 0.000071 0.163333 -0.099872
v 0.026629 0.240567 -0.144321
v 0.059630 0.278423 -0.163202
v 0.116695 0.306389 -0.198525
v 0.012053 0.001639 0.006250
v 0.171169 0.326679 -0.220617
v -0.000703 -0.002588 -0.020002
v 0.167771 0.324078 -0.228566
v -0.059088 0.222488 0.183510
v -0.031208 0.206657 0.136722
v -0.018285 0.180618 0.106504
v -0.016506 0.125561 0.058941
v -0.020670 0.066669 0.013441
v -0.004744 0.063835 0.026849
v -0.002163 0.121773 0.071397
v -0.006416 0.176227 0.118647
v -0.020745 0.202614 0.146917
v -0.051205 0.219920 0.190596
v -0.010244 0.000049 -0.000752
v -0.084777 0.232145 0.223052
v 0.006828 -0.001363 0.013530
v -0.080125 0.229840 0.227174
vt 0.2906 0.3332
vt 0.3087 0.1667
vt 0.5558 0.1667
vt 0.5612 0.3332
vt 0.3349 0.4985
vt 0.5740 0.4985
vt 0.3312 0.6624
vt 0.5409 0.6624
vt 0.3678 0.8322
vt 0.5048 0.8322
vt 0.3439 0.9846
vt 0.4344 0.9846
vt 0.2742 0.0000
vt 0.5095 0.0000
vt 0.3087 0.1667
vt 0.2742 0.0000
vt 0.5095 0.0000
vt 0.5558 0.1667
vt 0.3439 0.9846
vt 0.3678 0.8322
vt 0.5048 0.8322
vt 0.4344 0.9846
vt 0.3312 0.6624
vt 0.5409 0.6624
vt 0.3349 0.4985
vt 0.5740 0.4985
vt 0.2906 0.3332
vt 0.5612 0.3332
vt 0.2906 0.3332
vt 0.3087 0.1667
vt 0.5558 0.1667
vt 0.5612 0.3332
vt 0.3349 0.4985
vt 0.5740 0.4985
vt 0.3312 0.6624
vt 0.5409 0.6624
vt 0.3678 0.8322
vt 0.5048 0.8322
vt 0.3439 0.9846
vt 0.4344 0.9846
vt 0.2742 0.0000
vt 0.5095 0.0000
vt 0.2906 0.3332
vt 0.3087 0.1667
vt 0.5558 0.1667
vt 0.5612 0.3332
vt 0.3349 0.4985
vt 0.5740 0.4985
vt 0.3312 0.6624
vt 0.5409 0.6624
vt 0.3678 0.8322
vt 0.5048 0.8322
vt 0.3439 0.9846
vt 0.4344 0.9846
vt 0.2742 0.0000
vt 0.5095 0.0000
vt 0.2906 0.3332
vt 0.3087 0.1667
vt 0.5558 0.1667
vt 0.5612 0.3332
vt 0.3349 0.4985
vt 0.5740 0.4985
vt 0.3312 0.6624
vt 0.5409 0.6624
vt 0.3678 0.8322
vt 0.5048 0.8322
vt 0.3439 0.9846
vt 0.4344 0.9846
vt 0.2742 0.0000
vt 0.5095 0.0000
vt 0.2906 0.3332
vt 0.3087 0.1667
vt 0.5558 0.1667
vt 0.5612 0.3332
vt 0.3349 0.4985
vt 0.5740 0.4985
vt 0.3312 0.6624
vt 0.5409 0.6624
vt 0.3678 0.8322
vt 0.5048 0.8322
vt 0.3439 0.9846
vt 0.4344 0.9846
vt 0.2742 0.0000
vt 0.5095 0.0000
vt 0.3087 0.1667
vt 0.2742 0.0000
vt 0.5095 0.0000
vt 0.5558 0.1667
vt 0.3439 0.9846
vt 0.3678 0.8322
vt 0.5048 0.8322
vt 0.4344 0.9846
vt 0.3312 0.6624
vt 0.5409 0.6624
vt 0.3349 0.4985
vt 0.5740 0.4985
vt 0.2906 0.3332
vt 0.5612 0.3332
vt 0.2906 0.3332
vt 0.3087 0.1667
vt 0.5558 0.1667
vt 0.5612 0.3332
vt 0.3349 0.4985
vt 0.5740 0.4985
vt 0.3312 0.6624
vt 0.5409 0.6624
vt 0.3678 0.8322
vt 0.5048 0.8322
vt 0.3439 0.9846
vt 0.4344 0.9846
vt 0.2742 0.0000
vt 0.5095 0.0000
vt 0.2906 0.3332
vt 0.3087 0.1667
vt 0.5558 0.1667
vt 0.5612 0.3332
vt 0.3349 0.4985
vt 0.5740 0.4985
vt 0.3312 0.6624
vt 0.5409 0.6624
vt 0.3678 0.8322
vt 0.5048 0.8322
vt 0.3439 0.9846
vt 0.4344 0.9846
vt 0.2742 0.0000
vt 0.5095 0.0000
vt 0.2906 0.3332
vt 0.3087 0.1667
vt 0.5558 0.1667
vt 0.5612 0.3332
vt 0.3349 0.4985
vt 0.5740 0.4985
vt 0.3312 0.6624
vt 0.5409 0.6624
vt 0.3678 0.8322
vt 0.5048 0.8322
vt 0.3439 0.9846
vt 0.4344 0.9846
vt 0.2742 0.0000
vt 0.5095 0.0000
vn 0.5499 0.3657 0.7508
vn 0.6606 0.2205 0.7176
vn 0.6875 0.1640 0.7074
vn 0.5730 0.3462 0.7428
vn 0.3912 0.5262 0.7550
vn 0.4233 0.4945 0.7591
vn 0.1523 0.7436 0.6510
vn 0.1786 0.7219 0.6685
vn -0.0186 0.8415 0.5398
vn -0.0105 0.8396 0.5431
vn -0.0582 0.8500 0.5235
vn 0.7250 0.0714 0.6850
vn -0.6843 0.1123 0.7205
vn -0.6821 -0.0481 0.7296
vn -0.6850 0.0909 0.7228
vn -0.3478 0.8795 0.3249
vn -0.3946 0.8650 0.3098
vn -0.3971 0.8642 0.3089
vn -0.5151 0.7722 0.3720
vn -0.5163 0.7708 0.3733
vn -0.5770 0.6369 0.5113
vn -0.5774 0.6410 0.5056
vn -0.6287 0.4423 0.6396
vn -0.6369 0.4145 0.6500
vn -0.6452 0.2600 0.7184
vn -0.6545 0.0687 0.7529
vn -0.6545 0.0566 0.7540
vn -0.6469 0.2406 0.7236
vn -0.5298 0.4446 0.7223
vn -0.5358 0.4383 0.7216
vn -0.4463 0.3042 0.8416
vn -0.4465 0.3014 0.8425
vn -0.5257 -0.2951 0.7978
vn -0.5305 -0.3265 0.7822
vn -0.5421 -0.6120 0.5758
vn -0.6491 -0.0573 0.7585
vn 0.1654 0.5003 -0.8499
vn 0.1342 0.3216 -0.9373
vn 0.1325 0.2877 -0.9485
vn 0.1589 0.4848 -0.8600
vn 0.1957 0.6689 -0.7171
vn 0.1949 0.6581 -0.7272
vn 0.1723 0.8698 -0.4624
vn 0.1740 0.8648 -0.4709
vn 0.1432 0.9549 -0.2600
vn 0.1426 0.9538 -0.2644
vn 0.1479 0.9646 -0.2183
vn 0.1256 0.1705 -0.9773
vn 0.0764 0.4227 0.9030
vn 0.1777 0.3123 0.9332
vn 0.1881 0.2923 0.9376
vn 0.0956 0.4133 0.9055
vn -0.0521 0.5589 0.8276
vn -0.0295 0.5306 0.8471
vn -0.1954 0.7745 0.6016
vn -0.1840 0.7554 0.6289
vn -0.2812 0.8762 0.3913
vn -0.2782 0.8748 0.3966
vn -0.3056 0.8865 0.3474
vn 0.2284 0.2111 0.9504
vn 0.2885 0.3359 -0.8966
vn 0.2153 0.1668 -0.9622
vn 0.1997 0.1113 -0.9735
vn 0.2727 0.3138 -0.9095
vn 0.3602 0.5195 -0.7748
vn 0.3515 0.4892 -0.7981
vn 0.3790 0.7609 -0.5266
vn 0.3814 0.7413 -0.5522
vn 0.3660 0.8722 -0.3245
vn 0.3648 0.8697 -0.3324
vn 0.3722 0.8840 -0.2828
vn 0.1688 0.0071 -0.9856
vn 0.9425 0.2931 0.1606
vn 0.9759 0.1433 0.1643
vn 0.9469 0.2781 0.1611
vn 0.3567 0.9323 0.0587
vn 0.3698 0.9231 0.1051
vn 0.3703 0.9227 0.1069
vn 0.4888 0.8552 0.1721
vn 0.4893 0.8549 0.1722
vn 0.6447 0.7488 0.1540
vn 0.6389 0.7529 0.1577
vn 0.7989 0.5851 0.1388
vn 0.8120 0.5664 0.1409
vn 0.8957 0.4279 0.1204
vn 0.9605 0.2502 0.1213
vn 0.9623 0.2432 0.1213
vn 0.9028 0.4130 0.1202
vn 0.8137 0.5809 0.0170
vn 0.8153 0.5786 0.0196
vn 0.8887 0.4452 -0.1096
vn 0.8892 0.4442 -0.1097
vn 0.9920 -0.1254 0.0121
vn 0.9848 -0.1706 0.0325
vn 0.8657 -0.4704 0.1712
vn 0.9838 0.1314 0.1217
vn -0.8647 0.3946 0.3106
vn -0.8944 0.2130 0.3931
vn -0.8990 0.1666 0.4049
vn -0.8681 0.3745 0.3257
vn -0.7899 0.5794 0.2007
vn -0.8015 0.5588 0.2127
vn -0.5806 0.8115 0.0657
vn -0.5957 0.7999 0.0727
vn -0.4001 0.9160 -0.0286
vn -0.4046 0.9141 -0.0246
vn -0.3684 0.9279 -0.0563
vn -0.9015 0.0527 0.4295
vn 0.6555 0.4832 -0.5803
vn 0.6413 0.3597 -0.6777
vn 0.6417 0.3472 -0.6839
vn 0.6500 0.4734 -0.5944
vn 0.6456 0.6241 -0.4401
vn 0.6515 0.6018 -0.4619
vn 0.5144 0.8311 -0.2111
vn 0.5271 0.8188 -0.2273
vn 0.3768 0.9258 -0.0312
vn 0.3788 0.9248 -0.0349
vn 0.3526 0.9357 0.0123
vn 0.6403 0.2579 -0.7235
usemtl Grass.001
s 1
f 7/1/1 6/2/2 5/3/3 4/4/4
f 8/5/5 7/1/1 4/4/4 3/6/6
f 9/7/7 8/5/5 3/6/6 2/8/8
f 10/9/9 9/7/7 2/8/8 1/10/10
f 14/11/11 10/9/9 1/10/10 12/12/11
f 6/2/2 13/13/12 11/14/12 5/3/3
f 23/15/13 16/16/14 18/17/14 24/18/15
f 15/19/16 19/20/17 28/21/18 17/22/16
f 19/20/17 20/23/19 27/24/20 28/21/18
f 20/23/19 21/25/21 26/26/22 27/24/20
f 21/25/21 22/27/23 25/28/24 26/26/22
f 22/27/23 23/15/13 24/18/15 25/28/24
f 35/29/25 34/30/26 33/31/27 32/32/28
f 36/33/29 35/29/25 32/32/28 31/34/30
f 37/35/31 36/33/29 31/34/30 30/36/32
f 38/37/33 37/35/31 30/36/32 29/38/34
f 42/39/35 38/37/33 29/38/34 40/40/35
f 34/30/26 41/41/36 39/42/36 33/31/27
f 49/43/37 48/44/38 47/45/39 46/46/40
f 50/47/41 49/43/37 46/46/40 45/48/42
f 51/49/43 50/47/41 45/48/42 44/50/44
f 52/51/45 51/49/43 44/50/44 43/52/46
f 56/53/47 52/51/45 43/52/46 54/54/47
f 48/44/38 55/55/48 53/56/48 47/45/39
f 63/57/49 62/58/50 61/59/51 60/60/52
f 64/61/53 63/57/49 60/60/52 59/62/54
f 65/63/55 64/61/53 59/62/54 58/64/56
f 66/65/57 65/63/55 58/64/56 57/66/58
f 70/67/59 66/65/57 57/66/58 68/68/59
f 62/58/50 69/69/60 67/70/60 61/59/51
f 77/71/61 76/72/62 75/73/63 74/74/64
f 78/75/65 77/71/61 74/74/64 73/76/66
f 79/77/67 78/75/65 73/76/66 72/78/68
f 80/79/69 79/77/67 72/78/68 71/80/70
f 84/81/71 80/79/69 71/80/70 82/82/71
f 76/72/62 83/83/72 81/84/72 75/73/63
f 93/85/73 86/86/74 88/87/74 94/88/75
f 85/89/76 89/90/77 98/91/78 87/92/76
f 89/90/77 90/93/79 97/94/80 98/91/78
f 90/93/79 91/95/81 96/96/82 97/94/80
f 91/95/81 92/97/83 95/98/84 96/96/82
f 92/97/83 93/85/73 94/88/75 95/98/84
f 105/99/85 104/100/86 103/101/87 102/102/88
f 106/103/89 105/99/85 102/102/88 101/104/90
f 107/105/91 106/103/89 101/104/90 100/106/92
f 108/107/93 107/105/91 100/106/92 99/108/94
f 112/109/95 108/107/93 99/108/94 110/110/95
f 104/100/86 111/111/96 109/112/96 103/101/87
f 119/113/97 118/114/98 117/115/99 116/116/100
f 120/117/101 119/113/97 116/116/100 115/118/102
f 121/119/103 120/117/101 115/118/102 114/120/104
f 122/121/105 121/119/103 114/120/104 113/122/106
f 126/123/107 122/121/105 113/122/106 124/124/107
f 118/114/98 125/125/108 123/126/108 117/115/99
f 133/127/109 132/128/110 131/129/111 130/130/112
f 134/131/113 133/127/109 130/130/112 129/132/114
f 135/133/115 134/131/113 129/132/114 128/134/116
f 136/135/117 135/133/115 128/134/116 127/136/118
f 140/137/119 136/135/117 127/136/118 138/138/119
f 132/128/110 139/139/120 137/140/120 131/129/111
