# Blender v2.78 (sub 0) OBJ File: 'Grass.blend'
# www.blender.org
mtllib 09.mtl
o Grass.028_Plane.010
v -0.064651 0.068738 -0.051675
v -0.040606 0.069030 -0.030642
v 0.162642 0.501899 -0.273551
v 0.091890 0.441251 -0.198304
v -0.036234 0.067936 -0.031301
v -0.007926 0.344736 -0.179920
v -0.062212 -0.029626 -0.062023
v 0.201772 0.543569 -0.344456
v 0.210706 0.543722 -0.335495
v -0.029810 -0.029273 -0.032309
v 0.147611 0.501680 -0.289241
v 0.075638 0.439210 -0.222968
v -0.060965 0.230675 -0.113967
v -0.066999 0.067631 -0.060684
v -0.032978 0.231073 -0.086982
v 0.016428 0.345260 -0.155352
v 0.090988 0.413040 -0.116053
v 0.042366 0.350500 -0.137192
v -0.044641 0.228523 -0.085839
v -0.041154 0.168291 -0.055745
v 0.027937 0.361258 -0.146464
v -0.034763 -0.029378 -0.033509
v 0.080682 0.463437 -0.072187
v 0.001432 0.450395 0.336562
v -0.005890 0.237113 0.072367
v -0.051968 0.108357 0.002480
v 0.024766 0.448800 0.340261
v -0.068875 -0.030242 -0.023883
v 0.015433 0.470895 0.436635
v 0.078471 0.293387 -0.228442
v -0.038522 0.145205 -0.114469
v -0.045193 0.061807 -0.055569
v -0.058131 0.057522 -0.082197
v -0.049849 0.141020 -0.139105
v -0.022022 0.221943 -0.185677
v 0.072346 0.290908 -0.242470
v -0.037295 -0.028397 -0.027914
v 0.129421 0.312167 -0.265617
v -0.063036 0.167935 -0.075070
v -0.063718 0.228078 -0.103469
v 0.078364 0.420045 -0.120667
v 0.088154 0.459462 -0.069552
v -0.060047 -0.029706 -0.054736
v 0.004089 0.414142 0.223185
v 0.012362 0.358476 0.155726
v -0.006712 0.106160 0.007912
v 0.035512 0.234650 0.078170
v 0.049398 0.355400 0.163964
v 0.035196 0.411092 0.229791
v 0.001303 0.473731 0.434526
v -0.022126 -0.032515 -0.018272
v 0.019694 0.265453 -0.186205
v -0.013661 0.226146 -0.162581
v 0.012554 0.261607 -0.205459
v -0.050660 -0.032825 -0.055420
v 0.125861 0.309442 -0.273945
v -0.152538 0.520101 -0.383120
v 0.011455 -0.024746 0.038609
v -0.140485 0.520461 -0.386951
v -0.126021 0.483556 -0.305595
v -0.096651 0.427798 -0.205124
v -0.091215 0.339219 -0.101737
v -0.050177 0.231390 -0.012904
v 0.004381 0.072359 0.033508
v -0.013380 0.232371 -0.025391
v -0.058242 0.340314 -0.112125
v -0.067428 0.430699 -0.208448
v -0.105198 0.484158 -0.311754
v 0.006771 0.407462 -0.167131
v -0.030508 0.345673 -0.127329
v -0.017591 0.230315 -0.014276
v 0.014423 0.171972 0.002568
v 0.043089 0.074573 0.023728
v 0.013376 0.073907 0.035436
v -0.012774 0.171264 0.013148
v -0.041988 0.229517 -0.005397
v -0.046051 0.356358 -0.119891
v -0.003579 0.414618 -0.158777
v 0.043767 0.456522 -0.148099
v 0.037737 0.460592 -0.143093
v 0.364048 0.474413 0.115442
v 0.267098 0.431563 0.064931
v 0.214621 0.371873 0.032439
v 0.139905 0.246770 0.022895
v 0.064738 0.116087 0.044920
v 0.090577 0.112604 0.007540
v 0.164311 0.243181 -0.010873
v 0.239207 0.367973 0.003716
v 0.287499 0.427804 0.040709
v 0.378195 0.472210 0.096628
v 0.042203 -0.022884 0.062023
v 0.449316 0.503406 0.157985
v 0.068895 -0.026486 0.023412
v -0.091120 0.282154 -0.195211
v -0.079100 0.258909 -0.120964
v -0.071124 0.222340 -0.076584
v -0.034945 0.145442 -0.024266
v -0.009955 0.060713 0.016845
v -0.061737 0.140232 -0.025073
v -0.095181 0.217098 -0.079314
v -0.099212 0.254204 -0.123054
v -0.106220 0.279081 -0.195949
v -0.101700 0.296859 -0.259275
v -0.110552 0.293783 -0.259652
vt 0.2906 0.3332
vt 0.3087 0.1667
vt 0.5558 0.1667
vt 0.5612 0.3332
vt 0.3312 0.6624
vt 0.3349 0.4985
vt 0.5740 0.4985
vt 0.5409 0.6624
vt 0.3439 0.9846
vt 0.3678 0.8322
vt 0.5048 0.8322
vt 0.4344 0.9846
vt 0.3312 0.6624
vt 0.5409 0.6624
vt 0.3349 0.4985
vt 0.5740 0.4985
vt 0.2906 0.3332
vt 0.5612 0.3332
vt 0.2906 0.3332
vt 0.3087 0.1667
vt 0.5558 0.1667
vt 0.5612 0.3332
vt 0.3349 0.4985
vt 0.5740 0.4985
vt 0.3312 0.6624
vt 0.5409 0.6624
vt 0.3678 0.8322
vt 0.5048 0.8322
vt 0.2742 0.0000
vt 0.5095 0.0000
vt 0.3349 0.4985
vt 0.2906 0.3332
vt 0.5612 0.3332
vt 0.5740 0.4985
vt 0.3312 0.6624
vt 0.5409 0.6624
vt 0.3678 0.8322
vt 0.5048 0.8322
vt 0.3439 0.9846
vt 0.4344 0.9846
vt 0.3312 0.6624
vt 0.3349 0.4985
vt 0.5740 0.4985
vt 0.5409 0.6624
vt 0.2906 0.3332
vt 0.5612 0.3332
vt 0.3087 0.1667
vt 0.5558 0.1667
vt 0.2906 0.3332
vt 0.3087 0.1667
vt 0.5558 0.1667
vt 0.5612 0.3332
vt 0.3349 0.4985
vt 0.5740 0.4985
vt 0.3312 0.6624
vt 0.5409 0.6624
vt 0.3678 0.8322
vt 0.5048 0.8322
vt 0.3439 0.9846
vt 0.4344 0.9846
vt 0.2742 0.0000
vt 0.5095 0.0000
vt 0.3678 0.8322
vt 0.5048 0.8322
vt 0.3439 0.9846
vt 0.4344 0.9846
vt 0.2742 0.0000
vt 0.5095 0.0000
vt 0.2906 0.3332
vt 0.3087 0.1667
vt 0.5558 0.1667
vt 0.5612 0.3332
vt 0.3678 0.8322
vt 0.5048 0.8322
vt 0.3439 0.9846
vt 0.4344 0.9846
vt 0.2742 0.0000
vt 0.5095 0.0000
vt 0.3349 0.4985
vt 0.5740 0.4985
vt 0.3312 0.6624
vt 0.5409 0.6624
vt 0.3678 0.8322
vt 0.5048 0.8322
vt 0.3439 0.9846
vt 0.4344 0.9846
vt 0.2742 0.0000
vt 0.5095 0.0000
vn -0.8647 0.3946 0.3106
vn -0.8944 0.2130 0.3931
vn -0.8990 0.1666 0.4049
vn -0.8681 0.3745 0.3257
vn 0.1723 0.8698 -0.4624
vn 0.1957 0.6689 -0.7171
vn 0.1949 0.6581 -0.7272
vn 0.1740 0.8648 -0.4709
vn 0.0940 0.9128 0.3974
vn 0.0603 0.8999 0.4318
vn 0.0583 0.8991 0.4339
vn 0.0625 0.8210 0.5675
vn 0.0636 0.8190 0.5703
vn 0.1595 0.7055 0.6905
vn 0.1550 0.7085 0.6884
vn 0.2143 0.6664 0.7141
vn -0.7073 0.4098 -0.5759
vn -0.7888 0.2213 -0.5734
vn -0.7981 0.1818 -0.5744
vn -0.7197 0.3916 -0.5733
vn -0.5814 0.5964 -0.5535
vn -0.5924 0.5816 -0.5574
vn -0.3688 0.8270 -0.4242
vn -0.3777 0.8193 -0.4313
vn -0.2430 0.9151 -0.3218
vn -0.8182 0.0623 -0.5714
vn -0.2043 0.6367 0.7435
vn -0.1637 0.5108 0.8440
vn -0.1978 0.6164 0.7621
vn -0.2354 0.8401 0.4886
vn -0.2357 0.8292 0.5067
vn -0.2410 0.9276 0.2855
vn -0.2394 0.9262 0.2913
vn -0.2517 0.9363 0.2449
vn -0.4463 0.3042 0.8416
vn -0.5298 0.4446 0.7223
vn -0.5358 0.4383 0.7216
vn -0.4465 0.3015 0.8425
vn -0.6452 0.2600 0.7184
vn -0.6469 0.2406 0.7236
vn -0.6545 0.0687 0.7529
vn -0.6545 0.0566 0.7540
vn -0.6287 0.4423 0.6396
vn -0.6843 0.1123 0.7205
vn -0.6850 0.0909 0.7228
vn -0.6369 0.4145 0.6500
vn -0.5770 0.6369 0.5113
vn -0.5774 0.6410 0.5056
vn -0.5151 0.7722 0.3720
vn -0.5163 0.7708 0.3733
vn -0.3946 0.8650 0.3098
vn -0.3971 0.8642 0.3089
vn -0.3478 0.8795 0.3249
vn -0.6821 -0.0481 0.7296
vn -0.5257 -0.2951 0.7978
vn -0.5305 -0.3265 0.7822
vn -0.5421 -0.6120 0.5758
vn -0.6491 -0.0573 0.7585
vn 0.1654 0.5003 -0.8499
vn 0.1342 0.3216 -0.9373
vn 0.1325 0.2877 -0.9485
vn 0.1589 0.4848 -0.8600
vn 0.1432 0.9549 -0.2600
vn 0.1426 0.9538 -0.2644
vn 0.1479 0.9646 -0.2183
vn 0.1256 0.1706 -0.9773
vn -0.7899 0.5794 0.2007
vn -0.8015 0.5588 0.2127
vn -0.5806 0.8115 0.0657
vn -0.5957 0.7999 0.0727
vn -0.4001 0.9160 -0.0286
vn -0.4046 0.9141 -0.0246
vn -0.3684 0.9279 -0.0563
vn -0.9015 0.0527 0.4295
usemtl Grass.001
s 1
f 34/1/1 33/2/2 32/3/3 31/4/4
f 49/5/5 48/6/6 45/7/7 44/8/8
f 57/9/9 60/10/10 68/11/11 59/12/9
f 60/10/10 61/13/12 67/14/13 68/11/11
f 61/13/12 62/15/14 66/16/15 67/14/13
f 62/15/14 63/17/16 65/18/16 66/16/15
f 87/19/17 86/20/18 85/21/19 84/22/20
f 88/23/21 87/19/17 84/22/20 83/24/22
f 89/25/23 88/23/21 83/24/22 82/26/24
f 90/27/25 89/25/23 82/26/24 81/28/25
f 86/20/18 93/29/26 91/30/26 85/21/19
f 100/31/27 99/32/28 97/33/28 96/34/29
f 101/35/30 100/31/27 96/34/29 95/36/31
f 102/37/32 101/35/30 95/36/31 94/38/33
f 104/39/34 102/37/32 94/38/33 103/40/34
f 21/41/35 40/42/36 19/43/37 18/44/38
f 40/42/36 39/45/39 20/46/40 19/43/37
f 39/45/39 1/47/41 2/48/42 20/46/40
f 13/49/43 14/50/44 5/51/45 15/52/46
f 6/53/47 13/49/43 15/52/46 16/54/48
f 12/55/49 6/53/47 16/54/48 4/56/50
f 11/57/51 12/55/49 4/56/50 3/58/52
f 8/59/53 11/57/51 3/58/52 9/60/53
f 14/50/44 7/61/54 10/62/54 5/51/45
f 41/63/55 21/41/35 18/44/38 17/64/56
f 23/65/57 41/63/55 17/64/56 42/66/57
f 1/47/41 43/67/58 22/68/58 2/48/42
f 47/69/59 46/70/60 26/71/61 25/72/62
f 48/6/6 47/69/59 25/72/62 45/7/7
f 27/73/63 49/5/5 44/8/8 24/74/64
f 29/75/65 27/73/63 24/74/64 50/76/65
f 46/70/60 51/77/66 28/78/66 26/71/61
f 35/79/67 34/1/1 31/4/4 53/80/68
f 54/81/69 35/79/67 53/80/68 52/82/70
f 36/83/71 54/81/69 52/82/70 30/84/72
f 56/85/73 36/83/71 30/84/72 38/86/73
f 33/2/2 55/87/74 37/88/74 32/3/3
l 64 58
l 63 64
l 74 73
l 70 69
l 71 70
l 72 71
l 73 72
l 76 75
l 77 76
l 78 77
l 80 78
l 79 80
l 81 92
l 99 98
