# Blender v2.78 (sub 0) OBJ File: 'Grass.blend'
# www.blender.org
mtllib 10.mtl
o Grass.029_Plane.011
v -0.012254 0.014442 0.005553
v 0.035212 0.015124 0.005429
v -0.030229 0.636363 -0.178440
v -0.040594 0.426132 -0.051558
v -0.046957 0.296964 -0.003272
v -0.022578 0.155640 0.001482
v 0.023372 0.156297 0.001362
v -0.004969 0.297757 -0.003384
v -0.006790 0.636578 -0.178813
v 0.035774 0.017623 -0.015895
v 0.015790 0.013837 0.026877
v 0.043821 0.436909 0.002385
v 0.044727 0.548989 0.088840
v 0.141322 0.628864 0.144935
v -0.380236 0.624728 0.261214
v 0.031504 0.021033 0.015202
v -0.008546 0.008533 -0.004220
v -0.137886 0.420272 0.077542
v -0.096271 0.286712 0.047829
v -0.038092 0.151924 0.028306
v -0.125426 0.278882 0.028634
v -0.168601 0.411024 0.062223
v -0.237032 0.512659 0.123626
v -0.018165 0.007546 0.015059
v -0.485280 0.475163 -0.232309
v -0.425062 0.453980 -0.153293
v -0.407344 0.458640 -0.168052
v -0.356648 0.447879 -0.140971
v 0.017742 0.013679 -0.011032
v -0.150953 0.306475 -0.018153
v -0.042241 0.113574 -0.001930
v -0.081527 0.212035 -0.040499
v -0.141121 0.305085 -0.043461
v -0.287313 0.426065 -0.112131
v -0.216290 0.374797 -0.068795
v -0.030113 0.111436 -0.033920
v -0.093979 0.211998 -0.016324
v -0.225038 0.375313 -0.049597
v -0.293402 0.427208 -0.096028
v -0.353090 0.447262 -0.150383
v 0.005216 0.015886 0.022014
v -0.316681 0.430065 -0.092555
v -0.259337 0.378517 -0.045366
v -0.157741 0.266256 -0.012451
v -0.046158 0.149155 -0.009929
v -0.079433 0.141120 0.019942
v -0.188697 0.258401 0.014279
v -0.289091 0.370422 -0.023578
v -0.341331 0.422827 -0.074081
v 0.016207 0.015849 -0.015796
v -0.495485 0.470499 -0.223432
v -0.322652 0.586178 0.185803
v -0.076862 0.139821 0.009504
v -0.213820 0.519298 0.137153
v -0.303153 0.592351 0.195217
v -0.391647 0.621186 0.255689
v 0.027361 0.434277 0.035727
v -0.001046 0.299673 0.017059
v 0.001246 0.154831 0.032653
v 0.020592 0.158499 -0.008753
v 0.016738 0.302789 -0.020736
v 0.059767 0.551018 0.061123
v 0.151232 0.630801 0.123776
v 0.230098 0.680492 0.186525
v 0.235724 0.681583 0.174117
v -0.001735 0.539671 -0.122486
v -0.003433 0.426860 -0.051801
v -0.033037 0.539170 -0.122022
v -0.009849 0.693319 -0.246304
v -0.023545 0.693130 -0.246113
v -0.048999 0.414649 0.337312
v -0.032734 0.367164 0.251816
v -0.031286 0.299565 0.169376
v -0.039182 0.206829 0.109379
v -0.039054 0.107074 0.054774
v -0.005602 0.112509 0.051969
v -0.012203 0.209341 0.110129
v -0.004669 0.303569 0.167355
v -0.011894 0.369684 0.251414
v -0.032178 0.417450 0.335889
v -0.023299 0.011792 -0.003529
v -0.058048 0.432757 0.414251
v 0.011256 0.017405 -0.006429
v -0.048209 0.434343 0.413417
v -0.052122 0.443008 0.471376
v -0.019441 0.420933 0.355505
v 0.006249 0.373730 0.280646
v 0.009998 0.264351 0.168819
v -0.016904 0.147044 0.060888
v 0.025520 0.142463 0.077493
v 0.048584 0.259608 0.184704
v 0.039944 0.368247 0.297574
v 0.008940 0.415904 0.369317
v -0.030491 0.440077 0.480691
v -0.027241 0.013494 0.000033
v -0.078316 0.454077 0.570266
v 0.016583 0.008759 0.017185
v -0.065196 0.450464 0.575361
v 0.205716 0.603225 0.248890
v 0.125188 0.523083 0.194702
v 0.057453 0.415372 0.154135
v 0.030531 0.280493 0.122622
v 0.015307 0.140112 0.079623
v 0.013244 0.153454 0.037228
v 0.033699 0.289764 0.088483
v 0.056252 0.425645 0.120346
v 0.126077 0.530693 0.168304
v 0.204627 0.610016 0.227590
v -0.004956 0.007709 0.016919
v 0.292252 0.645732 0.282681
v -0.007087 0.021488 -0.026877
v 0.291640 0.649638 0.270205
v -0.039303 0.635395 -0.148955
v -0.034214 0.551953 -0.042020
v -0.055132 0.433226 -0.009618
v -0.037247 0.298323 0.016744
v -0.000445 0.156246 0.000077
v -0.046388 0.155543 0.000771
v -0.079201 0.297450 0.017253
v -0.092458 0.432330 -0.009870
v -0.065806 0.551032 -0.043462
v -0.062802 0.635097 -0.148618
v 0.011339 0.015714 -0.018167
v -0.049277 0.689507 -0.244104
v -0.036120 0.014984 -0.017450
v -0.062969 0.689291 -0.243742
v -0.265045 0.613061 0.124950
v -0.201011 0.522484 0.090767
v -0.118614 0.417646 0.055590
v -0.053463 0.294459 0.029020
v -0.038209 0.154320 -0.006229
v -0.018036 0.154287 0.035066
v -0.034996 0.294237 0.066742
v -0.102136 0.417438 0.088912
v -0.186919 0.522445 0.118729
v -0.254496 0.613194 0.145886
v -0.016441 0.014618 -0.026307
v -0.333279 0.662693 0.159989
v 0.004398 0.014579 0.016349
v -0.327128 0.662706 0.172230
vt 0.3087 0.1667
vt 0.2742 0.0000
vt 0.5095 0.0000
vt 0.5558 0.1667
vt 0.2906 0.3332
vt 0.5612 0.3332
vt 0.3349 0.4985
vt 0.2906 0.3332
vt 0.5612 0.3332
vt 0.5740 0.4985
vt 0.3678 0.8322
vt 0.3312 0.6624
vt 0.5409 0.6624
vt 0.5048 0.8322
vt 0.2906 0.3332
vt 0.3087 0.1667
vt 0.5558 0.1667
vt 0.5612 0.3332
vt 0.3349 0.4985
vt 0.5740 0.4985
vt 0.3312 0.6624
vt 0.5409 0.6624
vt 0.2906 0.3332
vt 0.3087 0.1667
vt 0.5558 0.1667
vt 0.5612 0.3332
vt 0.2906 0.3332
vt 0.3087 0.1667
vt 0.5558 0.1667
vt 0.5612 0.3332
vt 0.3349 0.4985
vt 0.5740 0.4985
vt 0.3312 0.6624
vt 0.5409 0.6624
vt 0.3678 0.8322
vt 0.5048 0.8322
vt 0.3439 0.9846
vt 0.4344 0.9846
vt 0.2742 0.0000
vt 0.5095 0.0000
vt 0.2906 0.3332
vt 0.3087 0.1667
vt 0.5558 0.1667
vt 0.5612 0.3332
vt 0.3349 0.4985
vt 0.5740 0.4985
vt 0.3312 0.6624
vt 0.5409 0.6624
vt 0.3678 0.8322
vt 0.5048 0.8322
vt 0.3439 0.9846
vt 0.4344 0.9846
vt 0.2742 0.0000
vt 0.5095 0.0000
vt 0.2906 0.3332
vt 0.3087 0.1667
vt 0.5558 0.1667
vt 0.5612 0.3332
vt 0.3349 0.4985
vt 0.5740 0.4985
vt 0.3312 0.6624
vt 0.5409 0.6624
vt 0.3678 0.8322
vt 0.5048 0.8322
vt 0.3439 0.9846
vt 0.4344 0.9846
vt 0.2742 0.0000
vt 0.5095 0.0000
vt 0.2906 0.3332
vt 0.3087 0.1667
vt 0.5558 0.1667
vt 0.5612 0.3332
vt 0.3349 0.4985
vt 0.5740 0.4985
vt 0.3312 0.6624
vt 0.5409 0.6624
vt 0.3678 0.8322
vt 0.5048 0.8322
vt 0.3439 0.9846
vt 0.4344 0.9846
vt 0.2742 0.0000
vt 0.5095 0.0000
vt 0.2906 0.3332
vt 0.3087 0.1667
vt 0.5558 0.1667
vt 0.5612 0.3332
vt 0.3349 0.4985
vt 0.5740 0.4985
vt 0.3312 0.6624
vt 0.5409 0.6624
vt 0.3678 0.8322
vt 0.5048 0.8322
vt 0.3439 0.9846
vt 0.4344 0.9846
vt 0.2742 0.0000
vt 0.5095 0.0000
vt 0.3439 0.9846
vt 0.3678 0.8322
vt 0.5048 0.8322
vt 0.4344 0.9846
vt 0.3312 0.6624
vt 0.5409 0.6624
vt 0.3349 0.4985
vt 0.5740 0.4985
vt 0.2742 0.0000
vt 0.5095 0.0000
vt 0.3439 0.9846
vt 0.3678 0.8322
vt 0.5048 0.8322
vt 0.4344 0.9846
vt 0.3312 0.6624
vt 0.5409 0.6624
vt 0.3349 0.4985
vt 0.5740 0.4985
vt 0.3087 0.1667
vt 0.2742 0.0000
vt 0.5095 0.0000
vt 0.5558 0.1667
vt 0.3439 0.9846
vt 0.3678 0.8322
vt 0.5048 0.8322
vt 0.4344 0.9846
vt 0.3312 0.6624
vt 0.5409 0.6624
vt 0.2742 0.0000
vt 0.5095 0.0000
vt 0.3439 0.9846
vt 0.3678 0.8322
vt 0.5048 0.8322
vt 0.4344 0.9846
vt 0.3087 0.1667
vt 0.2742 0.0000
vt 0.5095 0.0000
vt 0.5558 0.1667
vt 0.3439 0.9846
vt 0.4344 0.9846
vt 0.3349 0.4985
vt 0.5740 0.4985
vt 0.2906 0.3332
vt 0.5612 0.3332
vn 0.0021 0.0316 0.9995
vn 0.0022 0.0290 0.9996
vn 0.0021 0.0313 0.9995
vn -0.0003 0.1997 0.9799
vn -0.0001 0.1877 0.9822
vn 0.3162 0.4798 -0.8184
vn 0.4017 0.3061 -0.8631
vn 0.4018 0.3051 -0.8634
vn 0.3165 0.4793 -0.8186
vn 0.4159 0.9017 0.1179
vn 0.5662 0.7993 0.2011
vn 0.5646 0.8007 0.2004
vn 0.3919 0.9142 0.1037
vn 0.4458 0.5511 0.7053
vn 0.5528 0.3977 0.7323
vn 0.5719 0.3553 0.7393
vn 0.4631 0.5349 0.7067
vn 0.3066 0.6981 0.6470
vn 0.3233 0.6812 0.6568
vn 0.1120 0.8741 0.4727
vn 0.1226 0.8658 0.4850
vn -0.9016 0.1008 -0.4205
vn -0.9014 -0.0674 -0.4277
vn -0.9013 -0.0681 -0.4277
vn -0.9028 0.0840 -0.4218
vn -0.0893 0.5150 -0.8525
vn -0.1235 0.4954 -0.8598
vn -0.1239 0.4954 -0.8598
vn -0.0900 0.5120 -0.8542
vn -0.1138 0.6651 -0.7380
vn -0.1113 0.6537 -0.7485
vn -0.1413 0.8089 -0.5707
vn -0.1415 0.8121 -0.5660
vn -0.1604 0.9030 -0.3985
vn -0.1644 0.9157 -0.3667
vn -0.1776 0.9532 -0.2448
vn -0.1524 0.4974 -0.8540
vn 0.3729 0.6388 -0.6729
vn 0.3681 0.4932 -0.7882
vn 0.3702 0.4608 -0.8065
vn 0.3693 0.6259 -0.6869
vn 0.3672 0.7701 -0.5216
vn 0.3694 0.7597 -0.5352
vn 0.2835 0.9193 -0.2727
vn 0.2879 0.9151 -0.2821
vn 0.2083 0.9743 -0.0859
vn 0.2089 0.9738 -0.0902
vn 0.2027 0.9782 -0.0446
vn 0.3735 0.3605 -0.8547
vn -0.9888 0.1475 0.0215
vn -0.9917 0.1161 0.0544
vn -0.9919 0.1166 0.0509
vn -0.9383 0.3350 0.0860
vn -0.9364 0.3397 0.0879
vn -0.8174 0.5507 0.1688
vn -0.8074 0.5641 0.1730
vn -0.6675 0.7078 0.2310
vn -0.6233 0.7418 0.2474
vn -0.5092 0.8127 0.2830
vn -0.9902 0.1120 0.0834
vn 0.0065 0.0560 0.9984
vn 0.0162 -0.1191 0.9927
vn 0.0163 -0.1205 0.9926
vn 0.0082 0.0255 0.9996
vn -0.0152 0.2318 0.9726
vn -0.0164 0.2350 0.9718
vn -0.0319 0.5370 0.8430
vn -0.0318 0.5676 0.8227
vn -0.0165 0.8283 0.5600
vn -0.0167 0.8278 0.5607
vn -0.0027 0.8690 0.4948
vn 0.0169 -0.1273 0.9917
vn 0.8394 0.3570 -0.4097
vn 0.8801 0.2015 -0.4298
vn 0.8802 0.2012 -0.4298
vn 0.8425 0.3479 -0.4113
vn 0.7374 0.5701 -0.3621
vn 0.7336 0.5760 -0.3605
vn 0.6893 0.6371 -0.3447
vn 0.6897 0.6365 -0.3451
vn 0.6029 0.7368 -0.3060
vn 0.5988 0.7409 -0.3040
vn 0.4834 0.8398 -0.2470
vn 0.8806 0.1990 -0.4300
vn 0.0014 0.7657 0.6431
vn 0.0042 0.6378 0.7702
vn 0.0041 0.6417 0.7669
vn 0.0028 0.5168 0.8561
vn 0.0029 0.5162 0.8564
vn -0.0017 0.4384 0.8987
vn -0.0016 0.4444 0.8958
vn -0.9008 -0.0754 -0.4276
vn -0.4525 0.8822 -0.1299
vn -0.5045 0.8455 -0.1747
vn -0.5027 0.8469 -0.1731
vn -0.7489 0.5690 -0.3397
vn -0.7209 0.6141 -0.3211
vn -0.8680 0.2815 -0.4089
vn -0.8655 0.2882 -0.4097
vn 0.3753 0.2778 -0.8843
vn 0.3486 0.2751 -0.8960
vn 0.3777 0.2780 -0.8832
vn -0.0430 0.8759 -0.4806
vn 0.0679 0.7963 -0.6010
vn 0.0385 0.8202 -0.5708
vn 0.1881 0.6669 -0.7210
vn 0.1816 0.6759 -0.7142
vn 0.6117 0.2532 0.7495
vn -0.0619 0.9512 0.3021
vn -0.0268 0.9452 0.3252
vn -0.0223 0.9443 0.3281
vn 0.8264 0.4675 0.3138
vn 0.8332 0.4744 0.2841
vn 0.8270 0.4681 0.3112
vn 0.2841 0.9579 0.0414
vn 0.7075 0.6474 0.2835
vn 0.7222 0.6264 0.2933
vn 0.8054 0.4835 0.3427
vn 0.8083 0.4789 0.3424
usemtl Grass.001
s 1
f 6/1/1 1/2/2 2/3/2 7/4/3
f 5/5/4 6/1/1 7/4/3 8/6/5
f 18/7/6 19/8/7 21/9/8 22/10/9
f 39/11/10 38/12/11 35/13/12 34/14/13
f 47/15/14 46/16/15 45/17/16 44/18/17
f 48/19/18 47/15/14 44/18/17 43/20/19
f 49/21/20 48/19/18 43/20/19 42/22/21
f 61/23/22 60/24/23 59/25/24 58/26/25
f 77/27/26 76/28/27 75/29/28 74/30/29
f 78/31/30 77/27/26 74/30/29 73/32/31
f 79/33/32 78/31/30 73/32/31 72/34/33
f 80/35/34 79/33/32 72/34/33 71/36/35
f 84/37/36 80/35/34 71/36/35 82/38/36
f 76/28/27 83/39/37 81/40/37 75/29/28
f 91/41/38 90/42/39 89/43/40 88/44/41
f 92/45/42 91/41/38 88/44/41 87/46/43
f 93/47/44 92/45/42 87/46/43 86/48/45
f 94/49/46 93/47/44 86/48/45 85/50/47
f 98/51/48 94/49/46 85/50/47 96/52/48
f 90/42/39 97/53/49 95/54/49 89/43/40
f 105/55/50 104/56/51 103/57/52 102/58/50
f 106/59/53 105/55/50 102/58/50 101/60/54
f 107/61/55 106/59/53 101/60/54 100/62/56
f 108/63/57 107/61/55 100/62/56 99/64/58
f 112/65/59 108/63/57 99/64/58 110/66/59
f 104/56/51 111/67/60 109/68/60 103/57/52
f 119/69/61 118/70/62 117/71/63 116/72/64
f 120/73/65 119/69/61 116/72/64 115/74/66
f 121/75/67 120/73/65 115/74/66 114/76/68
f 122/77/69 121/75/67 114/76/68 113/78/70
f 126/79/71 122/77/69 113/78/70 124/80/71
f 118/70/62 125/81/72 123/82/72 117/71/63
f 133/83/73 132/84/74 131/85/75 130/86/76
f 134/87/77 133/83/73 130/86/76 129/88/78
f 135/89/79 134/87/77 129/88/78 128/90/80
f 136/91/81 135/89/79 128/90/80 127/92/82
f 140/93/83 136/91/81 127/92/82 138/94/83
f 132/84/74 139/95/84 137/96/84 131/85/75
f 70/97/85 3/98/86 9/99/87 69/100/85
f 3/98/86 68/101/88 66/102/89 9/99/87
f 68/101/88 4/103/90 67/104/91 66/102/89
f 4/103/90 5/5/4 8/6/5 67/104/91
f 60/24/23 10/105/92 11/106/92 59/25/24
f 65/107/93 63/108/94 14/109/95 64/110/93
f 63/108/94 62/111/96 13/112/97 14/109/95
f 62/111/96 12/113/98 57/114/99 13/112/97
f 12/113/98 61/23/22 58/26/25 57/114/99
f 20/115/100 16/116/101 17/117/101 53/118/102
f 15/119/103 55/120/104 52/121/105 56/122/103
f 55/120/104 54/123/106 23/124/107 52/121/105
f 54/123/106 18/7/6 22/10/9 23/124/107
f 19/8/7 20/115/100 53/118/102 21/9/8
f 46/16/15 24/125/108 50/126/108 45/17/16
f 51/127/109 26/128/110 27/129/111 25/130/109
f 26/128/110 49/21/20 42/22/21 27/129/111
f 31/131/112 41/132/113 29/133/113 36/134/114
f 28/135/115 39/11/10 34/14/13 40/136/115
f 38/12/11 30/137/116 33/138/117 35/13/12
f 30/137/116 37/139/118 32/140/119 33/138/117
f 37/139/118 31/131/112 36/134/114 32/140/119
