# Blender v2.78 (sub 0) OBJ File: 'Grass.blend'
# www.blender.org
mtllib 11.mtl
o Grass.030_Plane.012
v 0.175766 0.235000 0.028087
v 0.112946 0.162132 0.004947
v 0.038733 0.088588 -0.000657
v 0.063855 0.080972 -0.012366
v 0.136126 0.154887 -0.005251
v 0.223929 0.264642 0.053858
v 0.264271 0.289781 0.112472
v -0.007141 0.005045 0.009138
v 0.289614 0.308765 0.168274
v 0.018809 -0.002824 -0.002957
v -0.049372 0.529148 0.159266
v 0.013719 0.459991 0.087898
v 0.041479 0.357823 0.071764
v 0.031570 0.121027 0.033485
v 0.066691 0.240794 0.059126
v 0.030464 0.457354 0.109027
v -0.035984 0.527543 0.174229
v -0.095399 0.572182 0.232964
v -0.368902 0.435809 -0.149429
v -0.007039 0.003816 0.013556
v -0.365344 0.435192 -0.158841
v 0.005488 0.001609 -0.019490
v -0.237292 0.363243 -0.058055
v -0.106233 0.199928 -0.024782
v -0.054495 0.101504 -0.010388
v -0.093781 0.199965 -0.048957
v -0.228544 0.362726 -0.077254
v 0.036490 0.344493 -0.415694
v -0.054445 0.295623 -0.290159
v -0.076139 0.254129 -0.243855
v -0.020511 0.100412 -0.053154
v -0.058895 0.263502 -0.224569
v 0.000593 0.328895 -0.350540
v -0.039951 0.303822 -0.274250
v -0.051691 0.181961 -0.141033
v -0.043986 0.090108 -0.074179
v -0.072690 0.172206 -0.160690
v -0.011003 0.323247 -0.361840
v 0.014958 0.005880 -0.001797
v -0.009291 -0.004767 -0.023515
v 0.029910 0.339751 -0.422075
v -0.299567 0.413995 -0.120589
v -0.153375 0.293015 -0.051919
v -0.042367 0.099365 -0.042378
v -0.163207 0.294405 -0.026611
v -0.305657 0.415137 -0.104486
v 0.008021 0.001083 0.023515
v -0.103306 0.573150 0.224343
v -0.019035 0.004432 -0.006672
v 0.062215 0.354899 0.095933
v 0.005377 0.124267 0.004262
v 0.042864 0.243952 0.032393
v 0.297168 0.305057 0.165132
v 0.197380 0.227988 0.020742
v 0.205977 0.270820 0.060135
v 0.251100 0.293991 0.117958
v -0.291836 0.288575 0.284783
v -0.207343 0.274268 0.252155
v -0.153084 0.240790 0.224514
v -0.088427 0.168429 0.151615
v -0.038999 0.094969 0.059748
v -0.032774 0.084140 0.090327
v -0.083296 0.158124 0.179575
v -0.150614 0.230660 0.249761
v -0.205008 0.265468 0.273129
v -0.289236 0.282581 0.300543
v -0.013615 0.004663 -0.008179
v -0.363778 0.294972 0.311450
v -0.007185 -0.006525 0.023407
v -0.361972 0.290057 0.320272
v 0.064147 0.415458 0.313009
v 0.048936 0.364756 0.230598
v 0.022776 0.293731 0.157897
v -0.001331 0.198366 0.110801
v -0.015447 0.096445 0.065851
v 0.013768 0.102623 0.049779
v 0.023550 0.201613 0.100701
v 0.046128 0.298336 0.145319
v 0.067728 0.367800 0.221866
v 0.078829 0.418633 0.304912
v -0.016994 -0.000765 0.011100
v 0.084746 0.436664 0.386253
v 0.013185 0.005615 -0.005503
v 0.093337 0.438469 0.381518
v 0.105738 0.594879 -0.077438
v 0.008812 0.002976 -0.023046
v 0.105951 0.595455 -0.065697
v 0.009092 0.004912 0.017651
v 0.032397 0.540969 -0.074802
v -0.045225 0.460721 -0.073499
v -0.056817 0.356205 -0.090852
v -0.060783 0.239499 -0.073196
v -0.026685 0.120891 -0.038416
v -0.026413 0.122762 0.000981
v -0.060674 0.241394 -0.037231
v -0.057338 0.357935 -0.058859
v -0.046735 0.462224 -0.046429
v 0.032530 0.541872 -0.054648
v -0.178902 0.299066 -0.299956
v -0.015498 -0.004294 -0.010372
v -0.171957 0.303533 -0.297151
v 0.010179 0.006380 -0.002025
v -0.184899 0.280679 -0.239651
v -0.187134 0.252422 -0.170603
v -0.181044 0.214537 -0.130550
v -0.136949 0.143631 -0.075462
v -0.072294 0.074568 -0.027463
v -0.047436 0.084899 -0.019381
v -0.114446 0.153316 -0.067534
v -0.161502 0.223598 -0.121508
v -0.170862 0.260317 -0.163205
v -0.172330 0.286243 -0.234908
vt 0.2906 0.3332
vt 0.3087 0.1667
vt 0.5558 0.1667
vt 0.5612 0.3332
vt 0.2742 0.0000
vt 0.5095 0.0000
vt 0.3678 0.8322
vt 0.3312 0.6624
vt 0.5409 0.6624
vt 0.5048 0.8322
vt 0.2906 0.3332
vt 0.3087 0.1667
vt 0.5558 0.1667
vt 0.5612 0.3332
vt 0.3349 0.4985
vt 0.5740 0.4985
vt 0.3312 0.6624
vt 0.5409 0.6624
vt 0.3678 0.8322
vt 0.5048 0.8322
vt 0.3439 0.9846
vt 0.4344 0.9846
vt 0.2742 0.0000
vt 0.5095 0.0000
vt 0.2906 0.3332
vt 0.3087 0.1667
vt 0.5558 0.1667
vt 0.5612 0.3332
vt 0.3349 0.4985
vt 0.5740 0.4985
vt 0.3312 0.6624
vt 0.5409 0.6624
vt 0.3678 0.8322
vt 0.5048 0.8322
vt 0.3439 0.9846
vt 0.4344 0.9846
vt 0.2742 0.0000
vt 0.5095 0.0000
vt 0.3087 0.1667
vt 0.2742 0.0000
vt 0.5095 0.0000
vt 0.5558 0.1667
vt 0.3439 0.9846
vt 0.3678 0.8322
vt 0.5048 0.8322
vt 0.4344 0.9846
vt 0.3312 0.6624
vt 0.5409 0.6624
vt 0.3349 0.4985
vt 0.5740 0.4985
vt 0.2906 0.3332
vt 0.5612 0.3332
vt 0.3087 0.1667
vt 0.2742 0.0000
vt 0.5095 0.0000
vt 0.5558 0.1667
vt 0.3439 0.9846
vt 0.3678 0.8322
vt 0.5048 0.8322
vt 0.4344 0.9846
vt 0.3312 0.6624
vt 0.5409 0.6624
vt 0.3349 0.4985
vt 0.5740 0.4985
vt 0.2906 0.3332
vt 0.5612 0.3332
vt 0.3349 0.4985
vt 0.5740 0.4985
vt 0.3312 0.6624
vt 0.5409 0.6624
vt 0.3678 0.8322
vt 0.5048 0.8322
vt 0.3439 0.9846
vt 0.4344 0.9846
vt 0.2906 0.3332
vt 0.3087 0.1667
vt 0.5558 0.1667
vt 0.5612 0.3332
vt 0.3349 0.4985
vt 0.5740 0.4985
vt 0.3439 0.9846
vt 0.4344 0.9846
vt 0.2742 0.0000
vt 0.5095 0.0000
vt 0.3087 0.1667
vt 0.2742 0.0000
vt 0.5095 0.0000
vt 0.5558 0.1667
vt 0.3439 0.9846
vt 0.3678 0.8322
vt 0.5048 0.8322
vt 0.4344 0.9846
vt 0.3312 0.6624
vt 0.5409 0.6624
vt 0.3349 0.4985
vt 0.5740 0.4985
vt 0.2906 0.3332
vt 0.5612 0.3332
vt 0.3087 0.1667
vt 0.2742 0.0000
vt 0.5095 0.0000
vt 0.5558 0.1667
vt 0.3439 0.9846
vt 0.3678 0.8322
vt 0.5048 0.8322
vt 0.4344 0.9846
vt 0.3312 0.6624
vt 0.5409 0.6624
vt 0.3349 0.4985
vt 0.5740 0.4985
vt 0.2906 0.3332
vt 0.5612 0.3332
vn -0.2321 0.4216 -0.8766
vn -0.3345 0.2627 -0.9050
vn -0.3558 0.2098 -0.9107
vn -0.2524 0.4017 -0.8803
vn -0.3927 0.1086 -0.9132
vn 0.4545 0.8394 -0.2981
vn 0.6670 0.5641 -0.4866
vn 0.6589 0.5807 -0.4781
vn 0.4569 0.8375 -0.2995
vn 0.8124 0.5770 0.0837
vn 0.8911 0.4536 -0.0137
vn 0.9118 0.4090 -0.0362
vn 0.8238 0.5630 0.0650
vn 0.6894 0.6980 0.1935
vn 0.7121 0.6792 0.1780
vn 0.4398 0.8486 0.2940
vn 0.4612 0.8390 0.2888
vn 0.2427 0.9059 0.3469
vn 0.2479 0.9055 0.3442
vn 0.2045 0.9078 0.3662
vn 0.9431 0.3233 -0.0775
vn -0.4447 0.4508 -0.7739
vn -0.4787 0.4289 -0.7660
vn -0.4785 0.4289 -0.7662
vn -0.4457 0.4480 -0.7750
vn -0.4294 0.6113 -0.6647
vn -0.4304 0.6015 -0.6730
vn -0.3944 0.7699 -0.5016
vn -0.3926 0.7744 -0.4962
vn -0.3468 0.8757 -0.3359
vn -0.3376 0.8913 -0.3027
vn -0.3022 0.9350 -0.1853
vn -0.5033 0.4301 -0.7494
vn -0.9604 -0.2780 0.0192
vn -0.9581 -0.2858 0.0202
vn -0.9599 -0.2795 0.0194
vn -0.5925 0.8050 -0.0309
vn -0.6561 0.7533 -0.0439
vn -0.6581 0.7516 -0.0443
vn -0.9112 0.4089 -0.0505
vn -0.8977 0.4376 -0.0513
vn -0.9973 0.0690 -0.0233
vn -0.9972 0.0712 -0.0241
vn -0.9944 -0.1059 0.0040
vn -0.9901 -0.1400 0.0070
vn -0.3654 0.1401 0.9202
vn -0.3043 -0.0128 0.9525
vn -0.3430 0.0814 0.9358
vn -0.5111 0.8320 0.2156
vn -0.5091 0.8210 0.2582
vn -0.5086 0.8183 0.2678
vn -0.5365 0.7082 0.4589
vn -0.5411 0.6820 0.4919
vn -0.5243 0.4666 0.7122
vn -0.5131 0.4310 0.7423
vn -0.4474 0.2923 0.8451
vn -0.4292 0.2710 0.8616
vn -0.1021 0.5875 -0.8027
vn -0.1221 0.5611 -0.8186
vn 0.0530 0.8001 -0.5975
vn 0.0414 0.7842 -0.6190
vn 0.1541 0.8937 -0.4213
vn 0.1492 0.8920 -0.4266
vn 0.1824 0.9026 -0.3899
vn 0.7517 0.0970 -0.6523
vn 0.7382 -0.0806 -0.6697
vn 0.7379 -0.0824 -0.6699
vn 0.7508 0.0579 -0.6579
vn 0.7497 0.2647 -0.6065
vn 0.7497 0.2654 -0.6061
vn 0.3985 0.8783 -0.2640
vn 0.7368 -0.0889 -0.6702
vn 0.8264 0.4675 0.3138
vn 0.8332 0.4744 0.2841
vn 0.8270 0.4681 0.3112
vn 0.2841 0.9579 0.0414
vn 0.4159 0.9017 0.1179
vn 0.3919 0.9142 0.1036
vn 0.5662 0.7993 0.2011
vn 0.5646 0.8007 0.2004
vn 0.7075 0.6474 0.2835
vn 0.7222 0.6264 0.2933
vn 0.8054 0.4835 0.3427
vn 0.8083 0.4789 0.3424
vn -0.7105 0.2768 0.6469
vn -0.6920 0.1264 0.7107
vn -0.7060 0.2229 0.6722
vn -0.4567 0.8881 -0.0524
vn -0.4742 0.8803 -0.0137
vn -0.4772 0.8787 -0.0067
vn -0.5935 0.7904 0.1512
vn -0.6097 0.7736 0.1726
vn -0.7158 0.5850 0.3813
vn -0.7223 0.5575 0.4090
vn -0.7283 0.4267 0.5361
vn -0.7230 0.4075 0.5578
usemtl Grass.001
s 1
f 5/1/1 4/2/2 3/3/3 2/4/4
f 4/2/2 10/5/5 8/6/5 3/3/3
f 17/7/6 16/8/7 12/9/8 11/10/9
f 63/11/10 62/12/11 61/13/12 60/14/13
f 64/15/14 63/11/10 60/14/13 59/16/15
f 65/17/16 64/15/14 59/16/15 58/18/17
f 66/19/18 65/17/16 58/18/17 57/20/19
f 70/21/20 66/19/18 57/20/19 68/22/20
f 62/12/11 69/23/21 67/24/21 61/13/12
f 77/25/22 76/26/23 75/27/24 74/28/25
f 78/29/26 77/25/22 74/28/25 73/30/27
f 79/31/28 78/29/26 73/30/27 72/32/29
f 80/33/30 79/31/28 72/32/29 71/34/31
f 84/35/32 80/33/30 71/34/31 82/36/32
f 76/26/23 83/37/33 81/38/33 75/27/24
f 93/39/34 86/40/35 88/41/35 94/42/36
f 85/43/37 89/44/38 98/45/39 87/46/37
f 89/44/38 90/47/40 97/48/41 98/45/39
f 90/47/40 91/49/42 96/50/43 97/48/41
f 91/49/42 92/51/44 95/52/45 96/50/43
f 92/51/44 93/39/34 94/42/36 95/52/45
f 107/53/46 100/54/47 102/55/47 108/56/48
f 99/57/49 103/58/50 112/59/51 101/60/49
f 103/58/50 104/61/52 111/62/53 112/59/51
f 104/61/52 105/63/54 110/64/55 111/62/53
f 105/63/54 106/65/56 109/66/57 110/64/55
f 106/65/56 107/53/46 108/56/48 109/66/57
f 54/67/58 5/1/1 2/4/4 1/68/59
f 6/69/60 54/67/58 1/68/59 55/70/61
f 7/71/62 6/69/60 55/70/61 56/72/63
f 53/73/64 7/71/62 56/72/63 9/74/64
f 15/75/65 14/76/66 51/77/67 52/78/68
f 50/79/69 15/75/65 52/78/68 13/80/70
f 16/8/7 50/79/69 13/80/70 12/9/8
f 18/81/71 17/7/6 11/10/9 48/82/71
f 14/76/66 47/83/72 49/84/72 51/77/67
f 25/85/73 20/86/74 22/87/74 44/88/75
f 19/89/76 46/90/77 42/91/78 21/92/76
f 46/90/77 23/93/79 27/94/80 42/91/78
f 23/93/79 45/95/81 43/96/82 27/94/80
f 45/95/81 24/97/83 26/98/84 43/96/82
f 24/97/83 25/85/73 44/88/75 26/98/84
f 36/99/85 40/100/86 39/101/86 31/102/87
f 41/103/88 38/104/89 33/105/90 28/106/88
f 38/104/89 29/107/91 34/108/92 33/105/90
f 29/107/91 30/109/93 32/110/94 34/108/92
f 30/109/93 37/111/95 35/112/96 32/110/94
f 37/111/95 36/99/85 31/102/87 35/112/96
