# Blender v2.78 (sub 0) OBJ File: 'Grass.blend'
# www.blender.org
mtllib 13.mtl
o Grass.032_Plane.014
v 0.154253 0.386766 0.019797
v 0.055627 0.208545 0.025999
v 0.027855 0.102701 0.031125
v 0.029621 0.105760 -0.002918
v 0.093456 0.310090 -0.012201
v 0.156870 0.388035 -0.001082
v 0.222999 0.448838 0.025469
v -0.001885 -0.000195 0.019707
v 0.290372 0.477309 0.061042
v -0.000061 0.002963 -0.015460
v 0.290885 0.478195 0.051028
v -0.274184 0.237701 0.009968
v -0.146237 0.143649 0.032492
v -0.076768 0.070342 0.032280
v -0.163534 0.133723 0.048672
v -0.397984 0.257697 -0.063250
v 0.109012 0.233499 -0.166218
v 0.037269 0.138143 -0.101239
v 0.010331 0.067509 -0.060483
v 0.076786 0.194016 -0.169530
v 0.110879 0.227112 -0.182336
v 0.171187 0.250961 -0.195968
v 0.224138 0.269762 -0.197986
v 0.224587 0.266073 -0.204846
v -0.228154 0.277881 0.157657
v -0.108273 0.156800 0.072599
v -0.153506 0.233402 0.112642
v -0.214009 0.282954 0.166810
v -0.279096 0.315311 0.216231
v -0.013022 -0.003482 -0.004619
v -0.330022 0.322866 0.264173
v 0.011076 0.006249 0.008865
v -0.336891 0.320105 0.260339
v -0.052025 0.080072 0.038507
v -0.075352 0.070650 0.025453
v -0.126201 0.150931 0.059790
v -0.172055 0.226185 0.102086
v -0.290814 0.310515 0.209679
v 0.006505 -0.004160 -0.013100
v 0.006297 0.004299 0.011387
v 0.037955 0.130429 -0.122874
v 0.010130 0.075697 -0.036776
v 0.074391 0.201319 -0.150160
v 0.170544 0.255410 -0.183795
v 0.060431 0.209652 -0.000727
v 0.091767 0.307937 0.014810
v 0.222140 0.447235 0.042599
v 0.224548 0.435805 -0.198685
v 0.230460 0.435761 -0.191139
v 0.178233 0.404119 -0.162747
v 0.001659 0.199348 -0.054284
v 0.020274 0.199156 -0.031465
v -0.022190 0.257623 -0.217791
v -0.008295 0.209575 -0.152293
v 0.014025 0.067943 -0.055571
v -0.013166 0.144202 -0.098109
v -0.042961 0.301965 -0.343729
v 0.311354 0.310164 0.168330
v 0.246286 0.247623 0.105326
v -0.003831 -0.000803 0.018205
v 0.019444 -0.005342 -0.008645
v 0.479522 0.322282 0.288107
v -0.018194 -0.006591 0.007554
v -0.392598 0.262262 -0.068305
v 0.001029 0.004270 -0.011219
v -0.348422 0.247883 -0.022779
v -0.287917 0.229424 0.020928
v -0.245152 0.197360 0.043798
v -0.058158 0.080855 0.014106
v -0.228460 0.206909 0.030791
v -0.338526 0.253620 -0.031675
v 0.472873 0.323542 0.295927
v 0.412549 0.321712 0.227444
v 0.327391 0.306233 0.151214
v 0.264751 0.243584 0.084489
v 0.176053 0.172654 0.037920
v 0.091355 0.084574 0.020272
v 0.068821 0.088966 0.046264
v 0.155548 0.176846 0.061668
v 0.400983 0.323927 0.240710
v -0.013107 0.004175 0.006629
v -0.036052 0.300384 -0.346302
v 0.011162 -0.001407 -0.002383
v -0.038616 0.292594 -0.282686
v -0.037153 0.260287 -0.213266
v -0.027048 0.213625 -0.145480
v -0.009469 0.073348 -0.046849
v 0.006509 0.141368 -0.103104
v -0.026807 0.289824 -0.287076
v 0.188122 0.404009 -0.149591
v 0.127252 0.358101 -0.100399
v 0.065245 0.285749 -0.076510
v 0.011653 0.100366 0.002286
v -0.008834 0.100675 -0.022585
v 0.049141 0.285791 -0.097187
v 0.117227 0.356918 -0.120443
v 0.013964 0.001510 0.005562
v -0.007724 0.001800 -0.019707
v -0.415121 0.317230 -0.115115
v -0.002881 0.005325 0.014326
v -0.415238 0.314915 -0.123228
v -0.003257 -0.002835 -0.014159
v -0.347390 0.310787 -0.096904
v -0.269694 0.279265 -0.069793
v -0.189345 0.231028 -0.050736
v -0.127454 0.155530 -0.040165
v -0.064953 0.079216 -0.017135
v -0.065316 0.071315 -0.044710
v -0.125435 0.150982 -0.062647
v -0.189498 0.225029 -0.072727
v -0.268891 0.275183 -0.087085
v -0.347574 0.306755 -0.110759
v 0.275673 0.269457 0.112962
v 0.014123 -0.003656 -0.001879
v 0.269368 0.272758 0.116461
v -0.007397 0.003392 0.011341
v 0.241336 0.255608 0.070357
v 0.199852 0.233006 0.023422
v 0.173135 0.200398 -0.002436
v 0.116727 0.135647 -0.017994
v 0.052615 0.070310 -0.015830
v 0.031782 0.077131 -0.003032
v 0.097440 0.142128 -0.006720
v 0.154926 0.206653 0.006174
v 0.184747 0.238516 0.030723
v 0.230345 0.259371 0.076491
v 0.079267 0.464178 0.321871
v 0.012351 0.003785 -0.008000
v 0.070488 0.462745 0.326480
v -0.018488 -0.001295 0.008167
v 0.067691 0.438551 0.247806
v 0.059626 0.381594 0.171628
v 0.040725 0.306597 0.103993
v 0.019460 0.206938 0.071712
v 0.011219 0.104541 0.033974
v -0.018635 0.099622 0.049624
v -0.005814 0.204476 0.081203
v 0.016874 0.302976 0.116191
v 0.040490 0.379231 0.179973
v 0.052687 0.436011 0.255700
v -0.166599 0.273024 -0.347626
v -0.016165 -0.006456 -0.012646
v -0.159748 0.277685 -0.345162
v 0.009213 0.004812 -0.004764
v -0.175052 0.259366 -0.285452
v -0.180137 0.236562 -0.213116
v -0.175809 0.201953 -0.167983
v -0.134255 0.135663 -0.101976
v -0.071869 0.070667 -0.042450
v -0.047299 0.081574 -0.034819
v -0.112036 0.145915 -0.094503
v -0.156596 0.211669 -0.159436
v -0.164132 0.244990 -0.206177
v -0.162653 0.265269 -0.280986
v -0.017302 0.289374 0.589386
v 0.017064 -0.005500 0.011355
v -0.027496 0.290400 0.587836
v -0.018176 -0.001753 0.005672
v 0.000004 0.294386 0.500940
v 0.022059 0.286009 0.387485
v 0.050255 0.229376 0.293501
v 0.048214 0.164186 0.186754
v 0.024466 0.080143 0.096568
v -0.009649 0.083768 0.091064
v 0.017078 0.167674 0.181814
v 0.022671 0.232812 0.288798
v -0.001083 0.289469 0.382940
v -0.017440 0.296212 0.498074
v 0.254204 0.321648 -0.183525
v -0.013347 0.004159 -0.007706
v 0.260063 0.319997 -0.179093
v 0.007210 -0.001669 0.007873
v 0.204772 0.308715 -0.149424
v 0.147968 0.272548 -0.115756
v 0.097828 0.221896 -0.076955
v 0.068368 0.149602 -0.047645
v 0.030401 0.075989 -0.025191
v 0.050300 0.070346 -0.010109
v 0.082963 0.146432 -0.033661
v 0.113569 0.217647 -0.064814
v 0.159717 0.269672 -0.105545
v 0.214782 0.305826 -0.141851
v 0.201878 0.404920 0.123753
v 0.130927 0.358344 0.092397
v 0.082502 0.286892 0.044475
v 0.025585 0.199508 0.020567
v -0.002214 0.099447 0.020745
v 0.008453 0.101820 -0.009501
v 0.035471 0.201588 -0.007038
v 0.091862 0.288620 0.020102
v 0.142954 0.358622 0.073425
v 0.208012 0.406091 0.108559
v 0.001701 0.000697 0.014633
v 0.257507 0.437553 0.141784
v 0.012088 0.003112 -0.016846
v 0.260904 0.438213 0.132861
vt 0.3087 0.1667
vt 0.2742 0.0000
vt 0.5095 0.0000
vt 0.5558 0.1667
vt 0.2906 0.3332
vt 0.3087 0.1667
vt 0.5558 0.1667
vt 0.5612 0.3332
vt 0.3312 0.6624
vt 0.3349 0.4985
vt 0.5740 0.4985
vt 0.5409 0.6624
vt 0.3087 0.1667
vt 0.2742 0.0000
vt 0.5095 0.0000
vt 0.5558 0.1667
vt 0.3087 0.1667
vt 0.2742 0.0000
vt 0.5095 0.0000
vt 0.5558 0.1667
vt 0.3439 0.9846
vt 0.3678 0.8322
vt 0.5048 0.8322
vt 0.4344 0.9846
vt 0.3312 0.6624
vt 0.5409 0.6624
vt 0.3349 0.4985
vt 0.5740 0.4985
vt 0.2906 0.3332
vt 0.5612 0.3332
vt 0.3087 0.1667
vt 0.2742 0.0000
vt 0.5095 0.0000
vt 0.5558 0.1667
vt 0.3439 0.9846
vt 0.3678 0.8322
vt 0.5048 0.8322
vt 0.4344 0.9846
vt 0.3312 0.6624
vt 0.5409 0.6624
vt 0.3349 0.4985
vt 0.5740 0.4985
vt 0.2906 0.3332
vt 0.5612 0.3332
vt 0.3087 0.1667
vt 0.2742 0.0000
vt 0.5095 0.0000
vt 0.5558 0.1667
vt 0.3439 0.9846
vt 0.3678 0.8322
vt 0.5048 0.8322
vt 0.4344 0.9846
vt 0.3312 0.6624
vt 0.5409 0.6624
vt 0.3349 0.4985
vt 0.5740 0.4985
vt 0.2906 0.3332
vt 0.5612 0.3332
vt 0.3087 0.1667
vt 0.2742 0.0000
vt 0.5095 0.0000
vt 0.5558 0.1667
vt 0.3439 0.9846
vt 0.3678 0.8322
vt 0.5048 0.8322
vt 0.4344 0.9846
vt 0.3312 0.6624
vt 0.5409 0.6624
vt 0.3349 0.4985
vt 0.5740 0.4985
vt 0.2906 0.3332
vt 0.5612 0.3332
vt 0.3087 0.1667
vt 0.2742 0.0000
vt 0.5095 0.0000
vt 0.5558 0.1667
vt 0.3439 0.9846
vt 0.3678 0.8322
vt 0.5048 0.8322
vt 0.4344 0.9846
vt 0.3312 0.6624
vt 0.5409 0.6624
vt 0.3349 0.4985
vt 0.5740 0.4985
vt 0.2906 0.3332
vt 0.5612 0.3332
vt 0.3087 0.1667
vt 0.2742 0.0000
vt 0.5095 0.0000
vt 0.5558 0.1667
vt 0.3439 0.9846
vt 0.3678 0.8322
vt 0.5048 0.8322
vt 0.4344 0.9846
vt 0.3312 0.6624
vt 0.5409 0.6624
vt 0.3349 0.4985
vt 0.5740 0.4985
vt 0.2906 0.3332
vt 0.5612 0.3332
vt 0.2906 0.3332
vt 0.3087 0.1667
vt 0.5558 0.1667
vt 0.5612 0.3332
vt 0.3349 0.4985
vt 0.5740 0.4985
vt 0.3312 0.6624
vt 0.5409 0.6624
vt 0.3678 0.8322
vt 0.5048 0.8322
vt 0.3439 0.9846
vt 0.4344 0.9846
vt 0.2742 0.0000
vt 0.5095 0.0000
vt 0.2906 0.3332
vt 0.5612 0.3332
vt 0.3349 0.4985
vt 0.5740 0.4985
vt 0.3312 0.6624
vt 0.5409 0.6624
vt 0.3678 0.8322
vt 0.5048 0.8322
vt 0.3439 0.9846
vt 0.4344 0.9846
vt 0.2906 0.3332
vt 0.3087 0.1667
vt 0.5558 0.1667
vt 0.5612 0.3332
vt 0.3349 0.4985
vt 0.5740 0.4985
vt 0.3312 0.6624
vt 0.5409 0.6624
vt 0.3678 0.8322
vt 0.5048 0.8322
vt 0.3439 0.9846
vt 0.4344 0.9846
vt 0.2742 0.0000
vt 0.5095 0.0000
vt 0.2906 0.3332
vt 0.3087 0.1667
vt 0.5558 0.1667
vt 0.5612 0.3332
vt 0.3349 0.4985
vt 0.5740 0.4985
vt 0.3312 0.6624
vt 0.5409 0.6624
vt 0.3678 0.8322
vt 0.5048 0.8322
vt 0.3439 0.9846
vt 0.4344 0.9846
vt 0.2742 0.0000
vt 0.5095 0.0000
vt 0.2906 0.3332
vt 0.3087 0.1667
vt 0.5558 0.1667
vt 0.5612 0.3332
vt 0.3349 0.4985
vt 0.5740 0.4985
vt 0.3312 0.6624
vt 0.5409 0.6624
vt 0.3678 0.8322
vt 0.5048 0.8322
vt 0.3439 0.9846
vt 0.4344 0.9846
vt 0.2742 0.0000
vt 0.5095 0.0000
vt 0.3439 0.9846
vt 0.3678 0.8322
vt 0.5048 0.8322
vt 0.4344 0.9846
vt 0.2906 0.3332
vt 0.5612 0.3332
vt 0.2906 0.3332
vt 0.3087 0.1667
vt 0.5558 0.1667
vt 0.5612 0.3332
vt 0.3349 0.4985
vt 0.5740 0.4985
vt 0.3312 0.6624
vt 0.5409 0.6624
vt 0.3678 0.8322
vt 0.5048 0.8322
vt 0.3439 0.9846
vt 0.4344 0.9846
vt 0.2742 0.0000
vt 0.5095 0.0000
vt 0.3349 0.4985
vt 0.5740 0.4985
vt 0.3312 0.6624
vt 0.5409 0.6624
vt 0.3678 0.8322
vt 0.5048 0.8322
vt 0.3439 0.9846
vt 0.4344 0.9846
vt 0.2742 0.0000
vt 0.5095 0.0000
vn -0.9602 0.2735 -0.0557
vn -0.9597 0.2801 -0.0246
vn -0.9602 0.2739 -0.0537
vn -0.4519 0.7226 -0.5230
vn -0.5362 0.6218 -0.5708
vn -0.5372 0.6206 -0.5712
vn -0.4702 0.7027 -0.5338
vn -0.5470 0.7744 0.3178
vn -0.6265 0.6384 0.4472
vn -0.6261 0.6432 0.4408
vn -0.5475 0.7739 0.3182
vn -0.7599 0.1510 0.6323
vn -0.7652 0.0068 0.6437
vn -0.7616 0.1303 0.6348
vn 0.7927 0.5905 -0.1511
vn 0.7895 0.5872 -0.1786
vn 0.7929 0.5907 -0.1494
vn 0.1646 0.9470 -0.2758
vn 0.3168 0.9160 -0.2463
vn 0.2843 0.9246 -0.2532
vn 0.4901 0.8460 -0.2099
vn 0.4835 0.8495 -0.2110
vn 0.6621 0.7319 -0.1610
vn 0.6661 0.7286 -0.1595
vn 0.7814 0.6125 -0.1192
vn 0.7824 0.6112 -0.1194
vn -0.4393 0.2512 -0.8625
vn -0.4978 0.0965 -0.8619
vn -0.4612 0.1978 -0.8650
vn 0.1351 0.8990 -0.4166
vn 0.1033 0.8898 -0.4444
vn 0.0977 0.8880 -0.4493
vn -0.0180 0.7942 -0.6073
vn -0.0323 0.7777 -0.6277
vn -0.1965 0.5785 -0.7917
vn -0.2185 0.5514 -0.8051
vn -0.3345 0.4108 -0.8481
vn -0.3553 0.3906 -0.8492
vn -0.4545 0.3292 -0.8277
vn -0.4802 0.3327 -0.8115
vn -0.4549 0.3293 -0.8274
vn -0.2956 0.9160 -0.2712
vn -0.3372 0.8408 -0.4233
vn -0.3287 0.8601 -0.3901
vn -0.3808 0.7149 -0.5864
vn -0.3793 0.7195 -0.5817
vn -0.4104 0.5329 -0.7400
vn -0.4112 0.5181 -0.7499
vn -0.4202 0.3511 -0.8367
vn -0.4213 0.3476 -0.8376
vn -0.3966 0.2593 0.8806
vn -0.3407 0.1145 0.9332
vn -0.3763 0.2043 0.9037
vn -0.5124 0.8490 0.1291
vn -0.5112 0.8420 0.1721
vn -0.5108 0.8405 0.1806
vn -0.5426 0.7519 0.3744
vn -0.5476 0.7319 0.4055
vn -0.5397 0.5479 0.6391
vn -0.5304 0.5181 0.6710
vn -0.4716 0.3972 0.7873
vn -0.4549 0.3791 0.8058
vn 0.1867 0.6896 -0.6997
vn 0.1864 0.6848 -0.7045
vn 0.1867 0.6886 -0.7007
vn 0.0906 0.9931 0.0742
vn 0.1143 0.9933 0.0148
vn 0.1144 0.9933 0.0145
vn 0.1753 0.9466 -0.2705
vn 0.1727 0.9516 -0.2542
vn 0.1925 0.8496 -0.4910
vn 0.1927 0.8499 -0.4903
vn 0.1862 0.7775 -0.6006
vn 0.1866 0.7618 -0.6203
vn -0.4743 0.4609 0.7501
vn -0.4497 0.4602 0.7655
vn -0.4752 0.4609 0.7495
vn -0.0006 0.9351 0.3544
vn -0.1212 0.8818 0.4558
vn -0.0937 0.8962 0.4335
vn -0.2558 0.7837 0.5659
vn -0.2508 0.7885 0.5615
vn -0.3960 0.6343 0.6639
vn -0.4012 0.6279 0.6668
vn -0.4945 0.4837 0.7221
vn -0.4950 0.4817 0.7231
vn -0.8584 0.4302 -0.2792
vn -0.9397 0.1269 -0.3176
vn -0.9410 0.1141 -0.3184
vn -0.8655 0.4137 -0.2823
vn -0.7303 0.6274 -0.2703
vn -0.7220 0.6352 -0.2741
vn -0.5816 0.7702 -0.2619
vn -0.5786 0.7728 -0.2606
vn -0.4775 0.8618 -0.1712
vn -0.4775 0.8616 -0.1719
vn -0.4735 0.8725 -0.1208
vn -0.9460 -0.0141 -0.3238
vn -0.9516 0.2936 -0.0906
vn -0.9531 0.2889 -0.0897
vn -0.8697 0.4900 -0.0587
vn -0.8817 0.4674 -0.0637
vn -0.7289 0.6844 -0.0157
vn -0.7257 0.6878 -0.0151
vn -0.5677 0.8228 0.0240
vn -0.5372 0.8428 0.0321
vn -0.4162 0.9071 0.0621
vn 0.4095 0.4899 0.7696
vn 0.5331 0.3609 0.7652
vn 0.5647 0.3106 0.7646
vn 0.4332 0.4741 0.7665
vn 0.2461 0.6237 0.7418
vn 0.2759 0.5995 0.7512
vn 0.0167 0.7985 0.6017
vn 0.0374 0.7842 0.6194
vn -0.1412 0.8709 0.4707
vn -0.1349 0.8701 0.4740
vn -0.1790 0.8749 0.4500
vn 0.6134 0.2236 0.7574
vn -0.9207 0.3487 -0.1749
vn -0.9777 0.1932 -0.0823
vn -0.9888 0.1362 -0.0600
vn -0.9320 0.3278 -0.1549
vn -0.8081 0.5200 -0.2765
vn -0.8330 0.4880 -0.2606
vn -0.5631 0.7493 -0.3485
vn -0.5927 0.7277 -0.3451
vn -0.3618 0.8538 -0.3743
vn -0.3699 0.8516 -0.3715
vn -0.3215 0.8639 -0.3878
vn -0.9990 0.0389 -0.0219
vn 0.2864 0.5626 -0.7755
vn 0.2648 0.5369 -0.8010
vn 0.2674 0.5375 -0.7997
vn 0.2865 0.5620 -0.7759
vn 0.1858 0.6861 -0.7033
vn 0.1857 0.6863 -0.7032
vn 0.0481 0.8089 -0.5860
vn 0.0424 0.8137 -0.5798
vn -0.0766 0.8856 -0.4581
vn -0.1019 0.8961 -0.4319
vn -0.1840 0.9217 -0.3413
vn 0.2400 0.5314 -0.8124
vn -0.3743 0.8800 0.2922
vn -0.4190 0.8665 0.2713
vn -0.4211 0.8658 0.2703
vn -0.6920 0.4518 0.5630
vn -0.7009 0.4269 0.5714
vn 0.3390 0.5687 0.7494
vn 0.3735 0.5481 0.7484
vn 0.3729 0.5481 0.7486
vn 0.3398 0.5665 0.7507
vn 0.3346 0.7033 0.6272
vn 0.3347 0.6962 0.6350
vn 0.3192 0.8321 0.4535
vn 0.3181 0.8356 0.4479
vn 0.2932 0.9140 0.2805
vn 0.2887 0.9247 0.2481
vn 0.2694 0.9545 0.1277
vn 0.3990 0.5476 0.7354
vn -0.3553 0.8050 -0.4751
vn -0.3550 0.8052 -0.4750
vn -0.1741 0.9211 -0.3480
vn -0.1635 0.9264 -0.3392
vn 0.0400 0.9883 -0.1469
vn 0.0396 0.9883 -0.1475
vn 0.0785 0.9923 -0.0957
vn -0.5404 0.6164 -0.5727
usemtl Grass.001
s 1
f 4/1/1 10/2/2 8/3/2 3/4/3
f 76/5/4 77/6/5 78/7/6 79/8/7
f 96/9/8 95/10/9 92/11/10 91/12/11
f 94/13/12 98/14/13 97/15/13 93/16/14
f 107/17/15 100/18/16 102/19/16 108/20/17
f 99/21/18 103/22/19 112/23/20 101/24/18
f 103/22/19 104/25/21 111/26/22 112/23/20
f 104/25/21 105/27/23 110/28/24 111/26/22
f 105/27/23 106/29/25 109/30/26 110/28/24
f 106/29/25 107/17/15 108/20/17 109/30/26
f 121/31/27 114/32/28 116/33/28 122/34/29
f 113/35/30 117/36/31 126/37/32 115/38/30
f 117/36/31 118/39/33 125/40/34 126/37/32
f 118/39/33 119/41/35 124/42/36 125/40/34
f 119/41/35 120/43/37 123/44/38 124/42/36
f 120/43/37 121/31/27 122/34/29 123/44/38
f 135/45/39 128/46/40 130/47/40 136/48/41
f 127/49/42 131/50/43 140/51/44 129/52/42
f 131/50/43 132/53/45 139/54/46 140/51/44
f 132/53/45 133/55/47 138/56/48 139/54/46
f 133/55/47 134/57/49 137/58/50 138/56/48
f 134/57/49 135/45/39 136/48/41 137/58/50
f 149/59/51 142/60/52 144/61/52 150/62/53
f 141/63/54 145/64/55 154/65/56 143/66/54
f 145/64/55 146/67/57 153/68/58 154/65/56
f 146/67/57 147/69/59 152/70/60 153/68/58
f 147/69/59 148/71/61 151/72/62 152/70/60
f 148/71/61 149/59/51 150/62/53 151/72/62
f 163/73/63 156/74/64 158/75/64 164/76/65
f 155/77/66 159/78/67 168/79/68 157/80/66
f 159/78/67 160/81/69 167/82/70 168/79/68
f 160/81/69 161/83/71 166/84/72 167/82/70
f 161/83/71 162/85/73 165/86/74 166/84/72
f 162/85/73 163/73/63 164/76/65 165/86/74
f 177/87/75 170/88/76 172/89/76 178/90/77
f 169/91/78 173/92/79 182/93/80 171/94/78
f 173/92/79 174/95/81 181/96/82 182/93/80
f 174/95/81 175/97/83 180/98/84 181/96/82
f 175/97/83 176/99/85 179/100/86 180/98/84
f 176/99/85 177/87/75 178/90/77 179/100/86
f 189/101/87 188/102/88 187/103/89 186/104/90
f 190/105/91 189/101/87 186/104/90 185/106/92
f 191/107/93 190/105/91 185/106/92 184/108/94
f 192/109/95 191/107/93 184/108/94 183/110/96
f 196/111/97 192/109/95 183/110/96 194/112/97
f 188/102/88 195/113/98 193/114/98 187/103/89
f 45/115/99 4/1/1 3/4/3 2/116/100
f 5/117/101 45/115/99 2/116/100 46/118/102
f 6/119/103 5/117/101 46/118/102 1/120/104
f 7/121/105 6/119/103 1/120/104 47/122/106
f 11/123/107 7/121/105 47/122/106 9/124/107
f 15/125/108 14/126/109 69/127/110 13/128/111
f 68/129/112 15/125/108 13/128/111 70/130/113
f 67/131/114 68/129/112 70/130/113 12/132/115
f 66/133/116 67/131/114 12/132/115 71/134/117
f 16/135/118 66/133/116 71/134/117 64/136/118
f 14/126/109 63/137/119 65/138/119 69/127/110
f 41/139/120 19/140/121 42/141/122 18/142/123
f 20/143/124 41/139/120 18/142/123 43/144/125
f 21/145/126 20/143/124 43/144/125 17/146/127
f 22/147/128 21/145/126 17/146/127 44/148/129
f 24/149/130 22/147/128 44/148/129 23/150/130
f 19/140/121 39/151/131 40/152/131 42/141/122
f 26/153/132 34/154/133 35/155/134 36/156/135
f 27/157/136 26/153/132 36/156/135 37/158/137
f 28/159/138 27/157/136 37/158/137 25/160/139
f 29/161/140 28/159/138 25/160/139 38/162/141
f 31/163/142 29/161/140 38/162/141 33/164/142
f 34/154/133 32/165/143 30/166/143 35/155/134
f 48/167/144 50/168/145 90/169/146 49/170/144
f 50/168/145 96/9/8 91/12/11 90/169/146
f 95/10/9 51/171/147 52/172/148 92/11/10
f 51/171/147 94/13/12 93/16/14 52/172/148
f 56/173/149 87/174/150 55/175/151 88/176/152
f 86/177/153 56/173/149 88/176/152 54/178/154
f 85/179/155 86/177/153 54/178/154 53/180/156
f 84/181/157 85/179/155 53/180/156 89/182/158
f 57/183/159 84/181/157 89/182/158 82/184/159
f 87/174/150 81/185/160 83/186/160 55/175/151
f 75/187/161 76/5/4 79/8/7 59/188/162
f 74/189/163 75/187/161 59/188/162 58/190/164
f 73/191/165 74/189/163 58/190/164 80/192/166
f 62/193/167 73/191/165 80/192/166 72/194/167
f 77/6/5 61/195/168 60/196/168 78/7/6
