# Blender v2.78 (sub 0) OBJ File: 'Grass.blend'
# www.blender.org
mtllib 15.mtl
o Grass.034_Plane.016
v -0.003746 -0.002695 0.017823
v -0.205860 0.209537 0.188634
v -0.146072 0.195154 0.175431
v -0.108165 0.169175 0.163234
v -0.021955 0.062078 0.061712
v -0.023736 0.069536 0.039819
v -0.145882 0.201182 0.160531
v 0.221633 0.471459 -0.172735
v 0.150847 0.418072 -0.115530
v 0.078739 0.333934 -0.087749
v -0.007406 0.118712 -0.025040
v 0.060013 0.333983 -0.111794
v 0.270867 0.508383 -0.221050
v -0.006116 0.003732 -0.021693
v 0.263992 0.508434 -0.229826
v -0.001504 0.007085 0.018928
v -0.278945 0.411216 -0.204967
v -0.161032 0.345511 -0.110425
v -0.100915 0.279636 -0.073011
v -0.064511 0.188869 -0.053875
v -0.031780 0.096787 -0.021900
v -0.025507 0.089356 -0.051397
v -0.095688 0.274001 -0.096448
v -0.217645 0.389824 -0.172492
v -0.189515 0.312290 0.100042
v -0.118002 0.253978 0.077292
v -0.059176 0.180627 0.035148
v -0.042061 0.183077 0.056049
v -0.103161 0.255985 0.096238
v -0.179950 0.312444 0.118461
v -0.245044 0.348007 0.158183
v -0.298989 0.370471 0.184952
v -0.155811 0.341573 -0.128480
v -0.056525 0.184365 -0.076939
v -0.220777 0.393623 -0.157662
v 0.004975 -0.000590 -0.011543
v -0.280785 0.413390 -0.196286
v -0.293547 0.371234 0.191867
v 0.008000 0.004461 0.023794
v -0.011914 0.001546 0.000661
v -0.011913 0.094555 0.026553
v -0.030726 0.091770 0.003775
v -0.254145 0.346697 0.146126
v 0.019105 0.003394 0.007692
v 0.210132 0.471586 -0.188033
v 0.139189 0.416697 -0.138839
v 0.004795 0.233460 -0.061903
v 0.016417 0.118353 0.003883
v 0.026442 0.233236 -0.035367
v -0.206335 0.213655 0.177388
v -0.107721 0.176098 0.145325
v -0.061035 0.123096 0.099702
v -0.059815 0.116008 0.119687
v -0.005586 0.005011 -0.004792
v -0.257997 0.220212 0.191032
v -0.257558 0.216806 0.197370
v 0.048891 0.407479 0.223942
v 0.018379 0.353111 0.162833
v -0.010532 0.279641 0.114316
v -0.019727 0.186802 0.085854
v -0.018096 0.089847 0.054871
v -0.003493 0.098661 0.029239
v -0.005186 0.192799 0.066960
v 0.001354 0.286410 0.094047
v 0.028723 0.358079 0.147659
v 0.056199 0.411969 0.211045
v -0.012009 -0.001715 0.010500
v 0.088971 0.435585 0.275187
v 0.003075 0.007388 -0.015979
v 0.093265 0.438165 0.267642
v 0.252298 0.407389 -0.088703
v -0.003353 0.003709 -0.023795
v 0.255014 0.407166 -0.080278
v 0.007383 0.002824 0.005014
v 0.200880 0.377543 -0.073520
v 0.134797 0.333292 -0.058084
v 0.068815 0.267376 -0.062296
v 0.014522 0.186825 -0.043471
v -0.004046 0.095077 -0.022995
v 0.005775 0.094188 0.005085
v 0.023375 0.186095 -0.017763
v 0.076173 0.266839 -0.039240
v 0.137080 0.333923 -0.037472
v 0.205254 0.377126 -0.058968
v -0.440663 0.461760 0.101462
v -0.006377 0.003715 0.023746
v -0.443854 0.461042 0.090823
v -0.019050 0.000867 -0.012654
v -0.368112 0.433285 0.083074
v -0.273221 0.389380 0.064584
v -0.172459 0.318585 0.070854
v -0.081658 0.227733 0.047998
v -0.031884 0.117091 0.022610
v -0.043432 0.114389 -0.012862
v -0.092082 0.225386 0.015524
v -0.181122 0.316722 0.041738
v -0.275962 0.389802 0.038609
v -0.373222 0.432058 0.064701
v 0.201913 0.240696 -0.099700
v 0.143102 0.220323 -0.104924
v 0.108173 0.190398 -0.103251
v 0.060787 0.131165 -0.075046
v 0.017089 0.072240 -0.030158
v 0.024886 0.065180 -0.050938
v 0.068340 0.124497 -0.093857
v 0.116482 0.184055 -0.119540
v 0.149909 0.214759 -0.118529
v 0.206387 0.236843 -0.110206
v -0.001141 0.005305 0.007716
v 0.252811 0.254047 -0.094355
v 0.006913 -0.001989 -0.013747
v 0.255416 0.250784 -0.100292
vt 0.3349 0.4985
vt 0.2906 0.3332
vt 0.5612 0.3332
vt 0.5740 0.4985
vt 0.3312 0.6624
vt 0.5409 0.6624
vt 0.3087 0.1667
vt 0.2742 0.0000
vt 0.5095 0.0000
vt 0.5558 0.1667
vt 0.2906 0.3332
vt 0.3087 0.1667
vt 0.5558 0.1667
vt 0.5612 0.3332
vt 0.3349 0.4985
vt 0.5740 0.4985
vt 0.3312 0.6624
vt 0.5409 0.6624
vt 0.3678 0.8322
vt 0.5048 0.8322
vt 0.3439 0.9846
vt 0.4344 0.9846
vt 0.2742 0.0000
vt 0.5095 0.0000
vt 0.3087 0.1667
vt 0.2742 0.0000
vt 0.5095 0.0000
vt 0.5558 0.1667
vt 0.3439 0.9846
vt 0.3678 0.8322
vt 0.5048 0.8322
vt 0.4344 0.9846
vt 0.3312 0.6624
vt 0.5409 0.6624
vt 0.3349 0.4985
vt 0.5740 0.4985
vt 0.2906 0.3332
vt 0.5612 0.3332
vt 0.3087 0.1667
vt 0.2742 0.0000
vt 0.5095 0.0000
vt 0.5558 0.1667
vt 0.3439 0.9846
vt 0.3678 0.8322
vt 0.5048 0.8322
vt 0.4344 0.9846
vt 0.3312 0.6624
vt 0.5409 0.6624
vt 0.3349 0.4985
vt 0.5740 0.4985
vt 0.2906 0.3332
vt 0.5612 0.3332
vt 0.2906 0.3332
vt 0.3087 0.1667
vt 0.5558 0.1667
vt 0.5612 0.3332
vt 0.3349 0.4985
vt 0.5740 0.4985
vt 0.3312 0.6624
vt 0.5409 0.6624
vt 0.3678 0.8322
vt 0.5048 0.8322
vt 0.3439 0.9846
vt 0.4344 0.9846
vt 0.2742 0.0000
vt 0.5095 0.0000
vt 0.3087 0.1667
vt 0.2742 0.0000
vt 0.5095 0.0000
vt 0.5558 0.1667
vt 0.3439 0.9846
vt 0.3678 0.8322
vt 0.5048 0.8322
vt 0.4344 0.9846
vt 0.3312 0.6624
vt 0.5409 0.6624
vt 0.3349 0.4985
vt 0.5740 0.4985
vt 0.2906 0.3332
vt 0.5612 0.3332
vt 0.2906 0.3332
vt 0.3087 0.1667
vt 0.5558 0.1667
vt 0.5612 0.3332
vt 0.3349 0.4985
vt 0.5740 0.4985
vt 0.3312 0.6624
vt 0.5409 0.6624
vt 0.3678 0.8322
vt 0.5048 0.8322
vt 0.3439 0.9846
vt 0.4344 0.9846
vt 0.2742 0.0000
vt 0.5095 0.0000
vt 0.3087 0.1667
vt 0.2742 0.0000
vt 0.5095 0.0000
vt 0.5558 0.1667
vt 0.3439 0.9846
vt 0.3678 0.8322
vt 0.5048 0.8322
vt 0.4344 0.9846
vt 0.3312 0.6624
vt 0.5409 0.6624
vt 0.3349 0.4985
vt 0.5740 0.4985
vt 0.2906 0.3332
vt 0.5612 0.3332
vt 0.3678 0.8322
vt 0.5048 0.8322
vt 0.3439 0.9846
vt 0.4344 0.9846
vn 0.5085 0.7414 -0.4377
vn 0.5995 0.5778 -0.5538
vn 0.6063 0.5658 -0.5587
vn 0.5070 0.7478 -0.4286
vn 0.4180 0.8533 -0.3115
vn 0.4158 0.8550 -0.3098
vn 0.7113 0.3110 -0.6303
vn 0.7407 0.1802 -0.6472
vn 0.7139 0.3016 -0.6319
vn -0.8453 0.1920 -0.4986
vn -0.8663 0.1616 -0.4727
vn -0.8647 0.1620 -0.4754
vn -0.8453 0.1916 -0.4986
vn -0.8277 0.3772 -0.4154
vn -0.8272 0.3798 -0.4140
vn -0.7599 0.5860 -0.2814
vn -0.7535 0.5979 -0.2732
vn -0.6603 0.7357 -0.1504
vn -0.6317 0.7666 -0.1149
vn -0.5519 0.8335 -0.0249
vn -0.8803 0.1581 -0.4471
vn -0.9334 0.1302 0.3343
vn -0.9405 -0.0135 0.3394
vn -0.9354 0.1119 0.3353
vn -0.4574 0.8737 0.1655
vn -0.4922 0.8607 0.1297
vn -0.4934 0.8603 0.1284
vn -0.6288 0.7671 0.1274
vn -0.6282 0.7676 0.1271
vn -0.7480 0.6265 0.2188
vn -0.7450 0.6324 0.2122
vn -0.8492 0.4342 0.3005
vn -0.8591 0.4116 0.3042
vn 0.8880 0.3319 -0.3182
vn 0.9235 0.2011 -0.3267
vn 0.8919 0.3201 -0.3192
vn 0.3258 0.9325 -0.1557
vn 0.3592 0.9254 -0.1205
vn 0.3601 0.9252 -0.1196
vn 0.4967 0.8601 -0.1159
vn 0.4952 0.8610 -0.1155
vn 0.6268 0.7524 -0.2023
vn 0.6226 0.7578 -0.1950
vn 0.7534 0.5945 -0.2809
vn 0.7632 0.5805 -0.2837
vn -0.8036 0.3611 -0.4731
vn -0.8893 0.2024 -0.4101
vn -0.9070 0.1462 -0.3949
vn -0.8207 0.3400 -0.4592
vn -0.6632 0.5337 -0.5246
vn -0.6908 0.5029 -0.5194
vn -0.4096 0.7619 -0.5017
vn -0.4368 0.7418 -0.5089
vn -0.2124 0.8654 -0.4537
vn -0.2206 0.8633 -0.4539
vn -0.1701 0.8756 -0.4521
vn -0.9299 0.0468 -0.3648
vn 0.9134 0.4010 0.0693
vn 0.9646 0.2635 0.0113
vn 0.9343 0.3531 0.0488
vn 0.2024 0.9041 0.3763
vn 0.2423 0.9004 0.3612
vn 0.2484 0.8997 0.3589
vn 0.4439 0.8332 0.3296
vn 0.4674 0.8215 0.3265
vn 0.7007 0.6660 0.2558
vn 0.7252 0.6446 0.2422
vn 0.8309 0.5333 0.1585
vn 0.8439 0.5177 0.1406
vn -0.6920 0.4518 0.5630
vn -0.7599 0.1510 0.6323
vn -0.7616 0.1303 0.6348
vn -0.7009 0.4269 0.5714
vn -0.6265 0.6384 0.4472
vn -0.6261 0.6432 0.4408
vn -0.5470 0.7744 0.3178
vn -0.5475 0.7739 0.3182
vn -0.4190 0.8665 0.2713
vn -0.4211 0.8658 0.2703
vn -0.3743 0.8800 0.2922
vn -0.7652 0.0068 0.6437
vn 0.9222 0.3623 0.1350
vn 0.9265 0.3610 0.1061
vn 0.9219 0.3624 0.1367
vn 0.3940 0.9072 -0.1471
vn 0.5378 0.8397 -0.0752
vn 0.5036 0.8588 -0.0933
vn 0.6896 0.7241 0.0056
vn 0.6825 0.7309 0.0021
vn 0.8272 0.5532 0.0979
vn 0.8299 0.5489 0.1001
vn 0.9067 0.3879 0.1657
vn 0.9074 0.3862 0.1657
vn 0.2873 0.9200 -0.2665
vn 0.2880 0.9199 -0.2661
vn 0.2431 0.9264 -0.2875
usemtl Grass.001
s 1
f 29/1/1 28/2/2 27/3/3 26/4/4
f 30/5/5 29/1/1 26/4/4 25/6/6
f 41/7/7 39/8/8 40/9/8 42/10/9
f 63/11/10 62/12/11 61/13/12 60/14/13
f 64/15/14 63/11/10 60/14/13 59/16/15
f 65/17/16 64/15/14 59/16/15 58/18/17
f 66/19/18 65/17/16 58/18/17 57/20/19
f 70/21/20 66/19/18 57/20/19 68/22/20
f 62/12/11 69/23/21 67/24/21 61/13/12
f 79/25/22 72/26/23 74/27/23 80/28/24
f 71/29/25 75/30/26 84/31/27 73/32/25
f 75/30/26 76/33/28 83/34/29 84/31/27
f 76/33/28 77/35/30 82/36/31 83/34/29
f 77/35/30 78/37/32 81/38/33 82/36/31
f 78/37/32 79/25/22 80/28/24 81/38/33
f 93/39/34 86/40/35 88/41/35 94/42/36
f 85/43/37 89/44/38 98/45/39 87/46/37
f 89/44/38 90/47/40 97/48/41 98/45/39
f 90/47/40 91/49/42 96/50/43 97/48/41
f 91/49/42 92/51/44 95/52/45 96/50/43
f 92/51/44 93/39/34 94/42/36 95/52/45
f 105/53/46 104/54/47 103/55/48 102/56/49
f 106/57/50 105/53/46 102/56/49 101/58/51
f 107/59/52 106/57/50 101/58/51 100/60/53
f 108/61/54 107/59/52 100/60/53 99/62/55
f 112/63/56 108/61/54 99/62/55 110/64/56
f 104/54/47 111/65/57 109/66/57 103/55/48
f 5/67/58 1/68/59 54/69/59 6/70/60
f 56/71/61 2/72/62 50/73/63 55/74/61
f 2/72/62 3/75/64 7/76/65 50/73/63
f 3/75/64 4/77/66 51/78/67 7/76/65
f 4/77/66 53/79/68 52/80/69 51/78/67
f 53/79/68 5/67/58 6/70/60 52/80/69
f 47/81/70 11/82/71 48/83/72 49/84/73
f 12/85/74 47/81/70 49/84/73 10/86/75
f 46/87/76 12/85/74 10/86/75 9/88/77
f 45/89/78 46/87/76 9/88/77 8/90/79
f 15/91/80 45/89/78 8/90/79 13/92/80
f 11/82/71 14/93/81 44/94/81 48/83/72
f 21/95/82 16/96/83 36/97/83 22/98/84
f 37/99/85 35/100/86 24/101/87 17/102/85
f 35/100/86 18/103/88 33/104/89 24/101/87
f 18/103/88 19/105/90 23/106/91 33/104/89
f 19/105/90 20/107/92 34/108/93 23/106/91
f 20/107/92 21/95/82 22/98/84 34/108/93
f 28/2/2 41/7/7 42/10/9 27/3/3
f 31/109/94 30/5/5 25/6/6 43/110/95
f 38/111/96 31/109/94 43/110/95 32/112/96
