# Blender v2.78 (sub 0) OBJ File: 'Grass.blend'
# www.blender.org
mtllib 17.mtl
o Grass.036_Plane.018
v -0.297283 0.421118 -0.104116
v -0.226848 0.362039 -0.047117
v -0.149895 0.287585 -0.018258
v -0.091922 0.195799 -0.029480
v -0.047107 0.097555 -0.040364
v -0.071093 0.097303 -0.001164
v -0.114664 0.194436 -0.001167
v -0.169241 0.287133 0.012601
v -0.243312 0.361337 -0.024185
v -0.309323 0.421050 -0.084358
v -0.010747 0.000515 -0.030078
v -0.368345 0.451546 -0.162758
v -0.035523 0.000252 0.010415
v -0.375392 0.451460 -0.151227
v 0.163738 0.318769 -0.142941
v 0.095258 0.296243 -0.107688
v 0.058031 0.264897 -0.093406
v 0.028912 0.183695 -0.062639
v 0.017938 0.087640 -0.020344
v 0.008453 0.103668 -0.049767
v 0.020848 0.198099 -0.089884
v 0.052935 0.277305 -0.118913
v 0.090849 0.306379 -0.129037
v 0.159504 0.326769 -0.158462
v 0.028168 -0.002532 -0.011677
v 0.223555 0.334257 -0.175333
v 0.018371 0.014022 -0.042071
v 0.221208 0.337976 -0.184832
v -0.112481 0.460020 -0.131508
v -0.081624 0.375505 -0.081741
v -0.041956 0.282788 -0.049945
v -0.008693 0.191420 -0.047482
v 0.014848 0.099040 -0.046268
v -0.009743 0.097698 -0.022478
v -0.030286 0.191272 -0.030953
v -0.061657 0.281678 -0.031268
v -0.097732 0.375069 -0.068117
v -0.124836 0.459376 -0.119513
v 0.028325 0.005547 -0.031674
v -0.146187 0.521751 -0.181618
v 0.002924 0.004159 -0.007099
v -0.153416 0.521344 -0.174618
v -0.239610 0.303683 0.321993
v -0.008180 0.001156 -0.000419
v -0.248131 0.303251 0.316640
v -0.038090 -0.000389 -0.019243
v -0.183030 0.289206 0.268902
v -0.123978 0.252864 0.211088
v -0.078483 0.204657 0.144700
v -0.065406 0.138494 0.089216
v -0.041049 0.069568 0.041354
v -0.070003 0.068070 0.023130
v -0.086635 0.138520 0.072223
v -0.101342 0.203684 0.130049
v -0.141064 0.252503 0.198711
v -0.197609 0.288406 0.259744
v -0.312761 0.284456 -0.071634
v -0.046669 -0.002218 -0.006035
v -0.303946 0.287006 -0.076367
v -0.017998 0.002785 -0.024647
v -0.268365 0.264328 -0.023003
v -0.216976 0.235099 0.028735
v -0.189832 0.200354 0.052967
v -0.135148 0.134036 0.054010
v -0.072440 0.067816 0.030873
v -0.044685 0.072657 0.012855
v -0.109346 0.138620 0.038109
v -0.165228 0.204630 0.040632
v -0.196484 0.238950 0.018354
v -0.253612 0.266978 -0.031672
v -0.224088 0.332280 0.217442
v -0.006305 0.003322 -0.009203
v -0.233800 0.330576 0.217194
v -0.039965 -0.002555 -0.010460
v -0.199882 0.307012 0.163969
v -0.165307 0.261027 0.116457
v -0.122009 0.208238 0.057713
v -0.074559 0.146754 0.014537
v -0.045357 0.074097 0.002203
v -0.077941 0.068406 0.000987
v -0.104397 0.141649 0.013438
v -0.148428 0.203729 0.056849
v -0.187527 0.257167 0.115916
v -0.216468 0.304042 0.163574
v -0.377741 0.314290 -0.030287
v -0.040777 -0.002356 0.006118
v -0.373717 0.315179 -0.039545
v -0.026475 0.000766 -0.025792
v -0.301630 0.295784 -0.000355
v -0.211962 0.262992 0.034105
v -0.166566 0.204814 0.059385
v -0.108387 0.140280 0.055345
v -0.070284 0.069373 0.023473
v -0.056439 0.072392 -0.007418
v -0.095726 0.143165 0.027186
v -0.154878 0.207506 0.034570
v -0.201321 0.265465 0.013518
v -0.294520 0.297299 -0.016150
v 0.350306 0.468632 -0.177914
v 0.000763 0.019855 -0.033816
v 0.358776 0.460101 -0.169700
v 0.030486 -0.010149 -0.004957
v 0.263377 0.448815 -0.137946
v 0.175777 0.400244 -0.105940
v 0.103762 0.324164 -0.067400
v 0.079074 0.214715 -0.044209
v 0.044015 0.112742 -0.034496
v 0.072789 0.083693 -0.006558
v 0.098564 0.192564 -0.018768
v 0.126338 0.301328 -0.044910
v 0.192034 0.382747 -0.087227
v 0.277881 0.434143 -0.123928
v 0.181606 0.284988 0.201614
v 0.000245 0.000954 -0.016508
v 0.172772 0.285712 0.208196
v -0.027096 -0.000280 0.005953
v 0.138341 0.269519 0.146349
v 0.090617 0.245347 0.083099
v 0.071660 0.214059 0.040946
v 0.038153 0.146775 0.003400
v -0.000305 0.074878 -0.010719
v -0.026773 0.073682 0.011024
v 0.013419 0.145878 0.022860
v 0.047760 0.213570 0.056773
v 0.070637 0.245192 0.096557
v 0.124138 0.269101 0.157095
v -0.056216 0.487738 -0.135400
v 0.010870 0.000899 -0.003360
v -0.053579 0.490070 -0.144669
v 0.020379 0.008807 -0.035413
v -0.020430 0.429327 -0.112826
v 0.002148 0.351704 -0.088143
v 0.030846 0.259038 -0.055885
v 0.042177 0.164906 -0.024975
v 0.028150 0.083850 -0.018838
v 0.037356 0.091504 -0.049868
v 0.050617 0.172015 -0.053359
v 0.038222 0.265396 -0.081030
v 0.008167 0.357085 -0.109342
v -0.015965 0.433271 -0.128678
v 0.209285 0.410821 -0.240994
v 0.005585 0.017577 -0.038692
v 0.216747 0.405345 -0.235627
v 0.031191 -0.001422 -0.019784
v 0.155796 0.378849 -0.182497
v 0.090968 0.331240 -0.116813
v 0.041408 0.274951 -0.097507
v 0.013346 0.193343 -0.063972
v 0.014919 0.100456 -0.046178
v 0.039707 0.082061 -0.027874
v 0.035961 0.176674 -0.047210
v 0.061218 0.260177 -0.082211
v 0.107186 0.318809 -0.103195
v 0.168456 0.369406 -0.173119
v -0.169981 0.274427 0.219673
v 0.015072 -0.007454 0.002990
v -0.173247 0.281917 0.210867
v 0.002263 0.013754 -0.025653
v -0.110804 0.250965 0.184481
v -0.045090 0.217770 0.143849
v -0.008519 0.177266 0.123752
v 0.019743 0.113706 0.078757
v 0.027065 0.059831 0.024192
v 0.014664 0.080360 -0.003537
v 0.008986 0.132653 0.053047
v -0.016118 0.194418 0.099492
v -0.051591 0.232443 0.123610
v -0.116569 0.261715 0.169815
vt 0.2906 0.3332
vt 0.3087 0.1667
vt 0.5558 0.1667
vt 0.5612 0.3332
vt 0.3349 0.4985
vt 0.5740 0.4985
vt 0.3312 0.6624
vt 0.5409 0.6624
vt 0.3678 0.8322
vt 0.5048 0.8322
vt 0.3439 0.9846
vt 0.4344 0.9846
vt 0.2742 0.0000
vt 0.5095 0.0000
vt 0.2906 0.3332
vt 0.3087 0.1667
vt 0.5558 0.1667
vt 0.5612 0.3332
vt 0.3349 0.4985
vt 0.5740 0.4985
vt 0.3312 0.6624
vt 0.5409 0.6624
vt 0.3678 0.8322
vt 0.5048 0.8322
vt 0.3439 0.9846
vt 0.4344 0.9846
vt 0.2742 0.0000
vt 0.5095 0.0000
vt 0.2906 0.3332
vt 0.3087 0.1667
vt 0.5558 0.1667
vt 0.5612 0.3332
vt 0.3349 0.4985
vt 0.5740 0.4985
vt 0.3312 0.6624
vt 0.5409 0.6624
vt 0.3678 0.8322
vt 0.5048 0.8322
vt 0.3439 0.9846
vt 0.4344 0.9846
vt 0.2742 0.0000
vt 0.5095 0.0000
vt 0.3087 0.1667
vt 0.2742 0.0000
vt 0.5095 0.0000
vt 0.5558 0.1667
vt 0.3439 0.9846
vt 0.3678 0.8322
vt 0.5048 0.8322
vt 0.4344 0.9846
vt 0.3312 0.6624
vt 0.5409 0.6624
vt 0.3349 0.4985
vt 0.5740 0.4985
vt 0.2906 0.3332
vt 0.5612 0.3332
vt 0.3087 0.1667
vt 0.2742 0.0000
vt 0.5095 0.0000
vt 0.5558 0.1667
vt 0.3439 0.9846
vt 0.3678 0.8322
vt 0.5048 0.8322
vt 0.4344 0.9846
vt 0.3312 0.6624
vt 0.5409 0.6624
vt 0.3349 0.4985
vt 0.5740 0.4985
vt 0.2906 0.3332
vt 0.5612 0.3332
vt 0.3087 0.1667
vt 0.2742 0.0000
vt 0.5095 0.0000
vt 0.5558 0.1667
vt 0.3439 0.9846
vt 0.3678 0.8322
vt 0.5048 0.8322
vt 0.4344 0.9846
vt 0.3312 0.6624
vt 0.5409 0.6624
vt 0.3349 0.4985
vt 0.5740 0.4985
vt 0.2906 0.3332
vt 0.5612 0.3332
vt 0.3087 0.1667
vt 0.2742 0.0000
vt 0.5095 0.0000
vt 0.5558 0.1667
vt 0.3439 0.9846
vt 0.3678 0.8322
vt 0.5048 0.8322
vt 0.4344 0.9846
vt 0.3312 0.6624
vt 0.5409 0.6624
vt 0.3349 0.4985
vt 0.5740 0.4985
vt 0.2906 0.3332
vt 0.5612 0.3332
vt 0.3087 0.1667
vt 0.2742 0.0000
vt 0.5095 0.0000
vt 0.5558 0.1667
vt 0.3439 0.9846
vt 0.3678 0.8322
vt 0.5048 0.8322
vt 0.4344 0.9846
vt 0.3312 0.6624
vt 0.5409 0.6624
vt 0.3349 0.4985
vt 0.5740 0.4985
vt 0.2906 0.3332
vt 0.5612 0.3332
vt 0.3087 0.1667
vt 0.2742 0.0000
vt 0.5095 0.0000
vt 0.5558 0.1667
vt 0.3439 0.9846
vt 0.3678 0.8322
vt 0.5048 0.8322
vt 0.4344 0.9846
vt 0.3312 0.6624
vt 0.5409 0.6624
vt 0.3349 0.4985
vt 0.5740 0.4985
vt 0.2906 0.3332
vt 0.5612 0.3332
vt 0.3087 0.1667
vt 0.2742 0.0000
vt 0.5095 0.0000
vt 0.5558 0.1667
vt 0.3439 0.9846
vt 0.3678 0.8322
vt 0.5048 0.8322
vt 0.4344 0.9846
vt 0.3312 0.6624
vt 0.5409 0.6624
vt 0.3349 0.4985
vt 0.5740 0.4985
vt 0.2906 0.3332
vt 0.5612 0.3332
vt 0.3087 0.1667
vt 0.2742 0.0000
vt 0.5095 0.0000
vt 0.5558 0.1667
vt 0.3439 0.9846
vt 0.3678 0.8322
vt 0.5048 0.8322
vt 0.4344 0.9846
vt 0.3312 0.6624
vt 0.5409 0.6624
vt 0.3349 0.4985
vt 0.5740 0.4985
vt 0.2906 0.3332
vt 0.5612 0.3332
vt 0.3087 0.1667
vt 0.2742 0.0000
vt 0.5095 0.0000
vt 0.5558 0.1667
vt 0.3439 0.9846
vt 0.3678 0.8322
vt 0.5048 0.8322
vt 0.4344 0.9846
vt 0.3312 0.6624
vt 0.5409 0.6624
vt 0.3349 0.4985
vt 0.5740 0.4985
vt 0.2906 0.3332
vt 0.5612 0.3332
vn 0.7591 0.3573 0.5440
vn 0.7859 0.3345 0.5200
vn 0.7884 0.3379 0.5140
vn 0.7649 0.3445 0.5442
vn 0.6521 0.6001 0.4632
vn 0.6819 0.5450 0.4878
vn 0.5063 0.7868 0.3529
vn 0.5080 0.7852 0.3540
vn 0.3752 0.8913 0.2544
vn 0.3559 0.9035 0.2388
vn 0.2673 0.9489 0.1678
vn 0.7977 0.3509 0.4904
vn -0.8039 0.4141 0.4268
vn -0.9060 0.1823 0.3819
vn -0.9507 0.0122 0.3097
vn -0.8411 0.3358 0.4240
vn -0.5795 0.6739 0.4583
vn -0.6859 0.5735 0.4478
vn -0.2309 0.8546 0.4651
vn -0.3164 0.8262 0.4662
vn -0.0248 0.8996 0.4360
vn -0.0365 0.8968 0.4410
vn 0.0055 0.9061 0.4230
vn -0.9608 -0.0836 0.2642
vn 0.6336 0.2150 0.7431
vn 0.6583 0.1994 0.7258
vn 0.6588 0.1997 0.7253
vn 0.6356 0.2095 0.7430
vn 0.6053 0.3668 0.7064
vn 0.6085 0.3513 0.7115
vn 0.5606 0.5188 0.6454
vn 0.5597 0.5209 0.6445
vn 0.5173 0.6216 0.5882
vn 0.5101 0.6374 0.5775
vn 0.4804 0.6959 0.5338
vn 0.6742 0.2078 0.7086
vn 0.4252 0.6027 -0.6752
vn 0.3993 0.6099 -0.6845
vn 0.4234 0.6032 -0.6759
vn 0.0693 0.9786 -0.1934
vn 0.1487 0.9465 -0.2864
vn 0.1322 0.9545 -0.2673
vn 0.2407 0.8840 -0.4007
vn 0.2394 0.8852 -0.3988
vn 0.3534 0.7660 -0.5370
vn 0.3681 0.7470 -0.5535
vn 0.4443 0.6197 -0.6470
vn 0.4457 0.6136 -0.6517
vn 0.5329 0.0390 0.8453
vn 0.5578 -0.2169 0.8011
vn 0.5504 -0.0927 0.8297
vn 0.0141 0.9236 0.3831
vn 0.0384 0.9132 0.4057
vn 0.0454 0.9099 0.4122
vn 0.1441 0.8135 0.5634
vn 0.1680 0.7801 0.6026
vn 0.3106 0.5508 0.7747
vn 0.3504 0.4773 0.8058
vn 0.4450 0.2862 0.8485
vn 0.4761 0.2308 0.8485
vn 0.0078 0.1663 -0.9860
vn 0.0083 0.1635 -0.9865
vn 0.0076 0.1673 -0.9858
vn -0.1427 0.8682 -0.4753
vn -0.1196 0.7635 -0.6347
vn -0.1267 0.7967 -0.5910
vn -0.1010 0.6930 -0.7138
vn -0.1012 0.6877 -0.7188
vn -0.0778 0.6057 -0.7919
vn -0.0865 0.6434 -0.7606
vn -0.0212 0.3237 -0.9459
vn -0.0343 0.3931 -0.9188
vn 0.8682 0.2699 0.4163
vn 0.8719 0.2580 0.4160
vn 0.8697 0.2652 0.4162
vn 0.1696 0.9710 0.1686
vn 0.2109 0.9574 0.1973
vn 0.2142 0.9561 0.1996
vn 0.4633 0.8266 0.3194
vn 0.4669 0.8240 0.3209
vn 0.6688 0.6342 0.3879
vn 0.6722 0.6308 0.3876
vn 0.7750 0.4866 0.4032
vn 0.8148 0.4090 0.4108
vn -0.5653 0.2509 0.7858
vn -0.5304 0.2529 0.8092
vn -0.5510 0.2518 0.7956
vn 0.1277 0.7492 0.6499
vn 0.0109 0.7104 0.7037
vn 0.0204 0.7140 0.6998
vn -0.1477 0.6328 0.7600
vn -0.1609 0.6246 0.7642
vn -0.3431 0.5000 0.7952
vn -0.4375 0.4217 0.7942
vn -0.5648 0.2882 0.7732
vn -0.5766 0.2681 0.7718
vn -0.6146 0.2667 -0.7424
vn -0.6353 0.0556 -0.7703
vn -0.6203 0.2301 -0.7498
vn -0.1262 0.9746 -0.1849
vn -0.1514 0.9667 -0.2060
vn -0.1532 0.9661 -0.2075
vn -0.2552 0.8996 -0.3543
vn -0.2552 0.8997 -0.3542
vn -0.4116 0.7144 -0.5659
vn -0.4131 0.7121 -0.5676
vn -0.5271 0.5235 -0.6693
vn -0.5379 0.5053 -0.6747
vn 0.9572 -0.1510 0.2467
vn 0.9570 -0.1534 0.2460
vn 0.9574 -0.1494 0.2472
vn 0.7312 0.5839 0.3526
vn 0.8242 0.4485 0.3456
vn 0.7927 0.4996 0.3493
vn 0.8607 0.3769 0.3421
vn 0.8645 0.3701 0.3399
vn 0.9004 0.2784 0.3344
vn 0.8817 0.3273 0.3397
vn 0.9597 -0.0164 0.2806
vn 0.9499 0.0808 0.3017
vn -0.5153 0.1470 0.8443
vn -0.5219 0.1348 0.8423
vn -0.5190 0.1402 0.8432
vn 0.1625 0.7958 0.5833
vn 0.1246 0.7851 0.6067
vn 0.1164 0.7825 0.6116
vn -0.0834 0.6696 0.7380
vn -0.1194 0.6427 0.7567
vn -0.2839 0.4851 0.8271
vn -0.2901 0.4738 0.8315
vn -0.3745 0.3601 0.8544
vn -0.4505 0.2529 0.8562
vn 0.9397 0.1347 -0.3144
vn 0.9048 -0.0273 -0.4249
vn 0.9408 0.1462 -0.3059
vn 0.5348 0.7544 0.3805
vn 0.5581 0.7485 0.3581
vn 0.5574 0.7487 0.3588
vn 0.6928 0.6735 0.2575
vn 0.6776 0.6843 0.2692
vn 0.8614 0.5040 0.0630
vn 0.8480 0.5230 0.0851
vn 0.9266 0.3600 -0.1089
vn 0.9268 0.3591 -0.1101
usemtl Grass.001
s 1
f 7/1/1 6/2/2 5/3/3 4/4/4
f 8/5/5 7/1/1 4/4/4 3/6/6
f 9/7/7 8/5/5 3/6/6 2/8/8
f 10/9/9 9/7/7 2/8/8 1/10/10
f 14/11/11 10/9/9 1/10/10 12/12/11
f 6/2/2 13/13/12 11/14/12 5/3/3
f 21/15/13 20/16/14 19/17/15 18/18/16
f 22/19/17 21/15/13 18/18/16 17/20/18
f 23/21/19 22/19/17 17/20/18 16/22/20
f 24/23/21 23/21/19 16/22/20 15/24/22
f 28/25/23 24/23/21 15/24/22 26/26/23
f 20/16/14 27/27/24 25/28/24 19/17/15
f 35/29/25 34/30/26 33/31/27 32/32/28
f 36/33/29 35/29/25 32/32/28 31/34/30
f 37/35/31 36/33/29 31/34/30 30/36/32
f 38/37/33 37/35/31 30/36/32 29/38/34
f 42/39/35 38/37/33 29/38/34 40/40/35
f 34/30/26 41/41/36 39/42/36 33/31/27
f 51/43/37 44/44/38 46/45/38 52/46/39
f 43/47/40 47/48/41 56/49/42 45/50/40
f 47/48/41 48/51/43 55/52/44 56/49/42
f 48/51/43 49/53/45 54/54/46 55/52/44
f 49/53/45 50/55/47 53/56/48 54/54/46
f 50/55/47 51/43/37 52/46/39 53/56/48
f 65/57/49 58/58/50 60/59/50 66/60/51
f 57/61/52 61/62/53 70/63/54 59/64/52
f 61/62/53 62/65/55 69/66/56 70/63/54
f 62/65/55 63/67/57 68/68/58 69/66/56
f 63/67/57 64/69/59 67/70/60 68/68/58
f 64/69/59 65/57/49 66/60/51 67/70/60
f 79/71/61 72/72/62 74/73/62 80/74/63
f 71/75/64 75/76/65 84/77/66 73/78/64
f 75/76/65 76/79/67 83/80/68 84/77/66
f 76/79/67 77/81/69 82/82/70 83/80/68
f 77/81/69 78/83/71 81/84/72 82/82/70
f 78/83/71 79/71/61 80/74/63 81/84/72
f 93/85/73 86/86/74 88/87/74 94/88/75
f 85/89/76 89/90/77 98/91/78 87/92/76
f 89/90/77 90/93/79 97/94/80 98/91/78
f 90/93/79 91/95/81 96/96/82 97/94/80
f 91/95/81 92/97/83 95/98/84 96/96/82
f 92/97/83 93/85/73 94/88/75 95/98/84
f 107/99/85 100/100/86 102/101/86 108/102/87
f 99/103/88 103/104/89 112/105/90 101/106/88
f 103/104/89 104/107/91 111/108/92 112/105/90
f 104/107/91 105/109/93 110/110/94 111/108/92
f 105/109/93 106/111/95 109/112/96 110/110/94
f 106/111/95 107/99/85 108/102/87 109/112/96
f 121/113/97 114/114/98 116/115/98 122/116/99
f 113/117/100 117/118/101 126/119/102 115/120/100
f 117/118/101 118/121/103 125/122/104 126/119/102
f 118/121/103 119/123/105 124/124/106 125/122/104
f 119/123/105 120/125/107 123/126/108 124/124/106
f 120/125/107 121/113/97 122/116/99 123/126/108
f 135/127/109 128/128/110 130/129/110 136/130/111
f 127/131/112 131/132/113 140/133/114 129/134/112
f 131/132/113 132/135/115 139/136/116 140/133/114
f 132/135/115 133/137/117 138/138/118 139/136/116
f 133/137/117 134/139/119 137/140/120 138/138/118
f 134/139/119 135/127/109 136/130/111 137/140/120
f 149/141/121 142/142/122 144/143/122 150/144/123
f 141/145/124 145/146/125 154/147/126 143/148/124
f 145/146/125 146/149/127 153/150/128 154/147/126
f 146/149/127 147/151/129 152/152/130 153/150/128
f 147/151/129 148/153/131 151/154/132 152/152/130
f 148/153/131 149/141/121 150/144/123 151/154/132
f 163/155/133 156/156/134 158/157/134 164/158/135
f 155/159/136 159/160/137 168/161/138 157/162/136
f 159/160/137 160/163/139 167/164/140 168/161/138
f 160/163/139 161/165/141 166/166/142 167/164/140
f 161/165/141 162/167/143 165/168/144 166/166/142
f 162/167/143 163/155/133 164/158/135 165/168/144
